<svg xmlns="http://www.w3.org/2000/svg" width="20.133" height="19.658" viewBox="0 0 20.133 19.658">
  <g id="Buy" transform="translate(-1.883 -2.383)">
    <path id="Path_934" data-name="Path 934" d="M2.75,3.25l2.08.36.963,11.473a1.8,1.8,0,0,0,1.8,1.653H18.5a1.8,1.8,0,0,0,1.785-1.546l.949-6.558A1.341,1.341,0,0,0,20.1,7.113C20.037,7.1,5.164,7.1,5.164,7.1" fill="none" stroke="#000" stroke-linecap="round" stroke-linejoin="round" stroke-width="1.5"/>
    <path id="Path_935" data-name="Path 935" d="M14.125,10.795H16.9" fill="none" stroke="#000" stroke-linecap="round" stroke-linejoin="round" stroke-width="1.5"/>
    <path id="Path_936" data-name="Path 936" d="M7.154,20.2a.544.544,0,1,1-.544.544A.544.544,0,0,1,7.154,20.2Z" stroke="#000" stroke-linecap="round" stroke-linejoin="round" stroke-width="1.5" fill-rule="evenodd"/>
    <path id="Path_937" data-name="Path 937" d="M18.435,20.2a.544.544,0,1,1-.544.544A.545.545,0,0,1,18.435,20.2Z" stroke="#000" stroke-linecap="round" stroke-linejoin="round" stroke-width="1.5" fill-rule="evenodd"/>
  </g>
</svg>
