<svg id="svgexport-10" xmlns="http://www.w3.org/2000/svg" width="16" height="16" viewBox="0 0 16 16">
  <path id="Path_753" data-name="Path 753" d="M273.865,213.9h-6.636a.529.529,0,0,0-.529.529v2.121a.529.529,0,0,0,.529.529h3.737a4.982,4.982,0,0,1-2.146,2.515l1.592,2.759a7.977,7.977,0,0,0,4.065-6.973,5.5,5.5,0,0,0-.091-1.041A.536.536,0,0,0,273.865,213.9Z" transform="translate(-258.478 -207.447)" fill="#167ee6"/>
  <path id="Path_754" data-name="Path 754" d="M61.44,327.977a4.949,4.949,0,0,1-4.281-2.477L54.4,327.088a8.126,8.126,0,0,0,11.108,2.982v0l-1.592-2.759A4.907,4.907,0,0,1,61.44,327.977Z" transform="translate(-53.306 -315.16)" fill="#12b347"/>
  <path id="Path_755" data-name="Path 755" d="M260.565,380.162v0l-1.592-2.759a4.921,4.921,0,0,1-2.473.669v3.184A8.1,8.1,0,0,0,260.565,380.162Z" transform="translate(-248.544 -365.252)" fill="#0f993e"/>
  <path id="Path_756" data-name="Path 756" d="M26.184,142.082a5.182,5.182,0,0,1,.669-2.546L24.094,137.9a8.542,8.542,0,0,0,0,8.364l2.759-1.636A5.145,5.145,0,0,1,26.184,142.082Z" transform="translate(-23 -134.082)" fill="#ffd500"/>
  <path id="Path_757" data-name="Path 757" d="M61.575,24.184a5.083,5.083,0,0,1,3.2,1.129.547.547,0,0,0,.724-.031l1.53-1.5A.527.527,0,0,0,67,23a8.358,8.358,0,0,0-12.6,2.073l2.812,1.588A5.062,5.062,0,0,1,61.575,24.184Z" transform="translate(-53.306 -21)" fill="#ff4b26"/>
  <path id="Path_758" data-name="Path 758" d="M259.642,25.312a.529.529,0,0,0,.711-.031l1.5-1.5a.534.534,0,0,0-.031-.78,8.083,8.083,0,0,0-5.322-2v3.184A4.91,4.91,0,0,1,259.642,25.312Z" transform="translate(-248.568 -21)" fill="#d93f21"/>
</svg>
