<svg id="Group_2185" data-name="Group 2185" xmlns="http://www.w3.org/2000/svg" width="24" height="24" viewBox="0 0 24 24">
  <path id="Path_895" data-name="Path 895" d="M0,0H24V24H0Z" fill="none"/>
  <rect id="Rectangle_185" data-name="Rectangle 185" width="18" height="4" rx="1" transform="translate(3 8)" fill="none" stroke="#121212" stroke-linecap="round" stroke-linejoin="round" stroke-width="1.5"/>
  <line id="Line_63" data-name="Line 63" y2="13" transform="translate(12 8)" fill="none" stroke="#121212" stroke-linecap="round" stroke-linejoin="round" stroke-width="1.5"/>
  <path id="Path_896" data-name="Path 896" d="M19,12v7a2,2,0,0,1-2,2H7a2,2,0,0,1-2-2V12" fill="none" stroke="#121212" stroke-linecap="round" stroke-linejoin="round" stroke-width="1.5"/>
  <path id="Path_897" data-name="Path 897" d="M7.5,8a2.5,2.5,0,0,1,0-5c1.974-.034,3.76,1.949,4.5,5,.74-3.051,2.526-5.034,4.5-5a2.5,2.5,0,0,1,0,5" fill="none" stroke="#121212" stroke-linecap="round" stroke-linejoin="round" stroke-width="1.5"/>
</svg>
