<svg xmlns="http://www.w3.org/2000/svg" width="44.89" height="12.49" viewBox="0 0 44.89 12.49">
  <g id="pay" transform="translate(0 0)">
    <path id="Path_788" data-name="Path 788" d="M339.644,200.346a12.333,12.333,0,0,0-2.718.441l-.22,1.69a9.625,9.625,0,0,1,2.278-.514c.882,0,1.4.147,1.249.955-2.645,0-4.408.514-4.775,2.278-.514,2.939,2.718,3.012,3.967,1.69l-.147.808h2.351l1.029-4.776C343.024,200.934,341.261,200.273,339.644,200.346Zm.147,4.922c-.147.588-.661.808-1.249.882-.514,0-.955-.294-.661-.882.294-.441.955-.441,1.469-.441h.588C339.865,204.754,339.791,205.048,339.791,205.269Z" transform="translate(-304.599 -198.142)" fill="#32a6ce"/>
    <path id="Path_789" data-name="Path 789" d="M336.706,203.257a9.623,9.623,0,0,1,2.278-.514c.882,0,1.4.147,1.249.955-2.645,0-4.408.514-4.775,2.278-.514,2.939,2.718,3.012,3.967,1.69l-.147.808h2.351l1.029-4.776c.441-1.984-1.4-2.5-3.012-2.5m.147,4.849c-.147.588-.661.808-1.249.882-.514,0-.955-.294-.661-.882.294-.441.955-.441,1.469-.441h.588C339.865,205.535,339.791,205.829,339.791,206.049Z" transform="translate(-304.599 -198.922)" fill="#1a80ad"/>
    <path id="Path_790" data-name="Path 790" d="M417.11,176.4l-1.91,9.551h2.351l1.984-9.551Z" transform="translate(-377.069 -176.4)" fill="#32a6ce"/>
    <path id="Path_791" data-name="Path 791" d="M418.8,176.4l-3.6,9.551h2.351l1.984-9.551H418.8Z" transform="translate(-377.069 -176.4)" fill="#1a80ad"/>
    <path id="Path_792" data-name="Path 792" d="M255.045,176.4H250.71l-1.91,9.551h2.571l.661-2.939h1.837a3.492,3.492,0,0,0,3.6-2.865C257.837,178.016,256.294,176.4,255.045,176.4Zm-.073,3.306a1.5,1.5,0,0,1-1.469,1.1h-1.176l.514-2.2h1.249A.832.832,0,0,1,254.971,179.706Z" transform="translate(-225.951 -176.4)" fill="#32a6ce"/>
    <path id="Path_793" data-name="Path 793" d="M254.318,176.4H251.38L248,185.951h2.571l.661-2.939h1.837a3.492,3.492,0,0,0,3.6-2.865C257.11,178.016,255.567,176.4,254.318,176.4Zm-.073,3.306a1.5,1.5,0,0,1-1.469,1.1H251.6l.514-2.2h1.249A.832.832,0,0,1,254.245,179.706Z" transform="translate(-225.225 -176.4)" fill="#1a80ad"/>
    <path id="Path_794" data-name="Path 794" d="M91.486,200.346a10.919,10.919,0,0,0-2.645.441l-.22,1.69a8.788,8.788,0,0,1,2.278-.514c.882,0,1.4.147,1.249.955-2.571,0-4.335.514-4.7,2.278-.514,2.939,2.645,3.012,3.894,1.69l-.147.808h2.351l1.029-4.776C94.939,200.934,93.1,200.273,91.486,200.346Zm.22,4.922c-.147.588-.661.808-1.249.882-.514,0-.955-.294-.588-.882.294-.441.955-.441,1.4-.441h.588C91.78,204.754,91.707,205.048,91.707,205.269Z" transform="translate(-79.364 -198.142)" fill="#21789e"/>
    <path id="Path_795" data-name="Path 795" d="M89.421,203.257a8.786,8.786,0,0,1,2.278-.514c.882,0,1.4.147,1.249.955-2.571,0-4.335.514-4.7,2.278-.514,2.939,2.645,3.012,3.894,1.69l-.22.808H94.27L95.3,203.7c.441-1.984-1.4-2.5-3.012-2.5m.147,4.849c-.147.588-.661.808-1.249.882-.514,0-.955-.294-.588-.882.294-.441.955-.441,1.4-.441h.588C92.507,205.535,92.433,205.829,92.433,206.049Z" transform="translate(-80.09 -198.922)" fill="#1a5b80"/>
    <path id="Path_796" data-name="Path 796" d="M168.735,200.4h2.351l.367,4.114L173.8,200.4h2.424l-5.584,10.286H168l1.69-3.086Z" transform="translate(-152.571 -198.196)" fill="#21789e"/>
    <path id="Path_797" data-name="Path 797" d="M171.086,200.547l.367,4.041L173.8,200.4h2.424l-5.584,10.286H168l1.69-3.012" transform="translate(-152.571 -198.196)" fill="#1a5b80"/>
    <path id="Path_798" data-name="Path 798" d="M6.318,176.4H1.91L0,185.951H2.571l.661-2.939H5.069a3.492,3.492,0,0,0,3.6-2.865C9.11,178.016,7.567,176.4,6.318,176.4Zm-.073,3.306a1.5,1.5,0,0,1-1.469,1.1H3.6l.514-2.2H5.363A.832.832,0,0,1,6.245,179.706Z" transform="translate(0 -176.4)" fill="#21789e"/>
    <path id="Path_799" data-name="Path 799" d="M6.318,176.4H4.335L0,185.951H2.571l.661-2.939H5.069a3.492,3.492,0,0,0,3.6-2.865C9.11,178.016,7.567,176.4,6.318,176.4Zm-.073,3.306a1.5,1.5,0,0,1-1.469,1.1H3.6l.514-2.2H5.363A.832.832,0,0,1,6.245,179.706Z" transform="translate(0 -176.4)" fill="#1a5b80"/>
    <g id="Group_1513" data-name="Group 1513" transform="translate(0.22 2.204)">
      <path id="Path_800" data-name="Path 800" d="M91.045,228.4c-1.984.147-3.306.735-3.6,2.2-.514,2.939,2.645,3.012,3.894,1.69l-.147.882h2.351l.367-1.763Zm.661,2.351c-.147.588-.661.808-1.249.882-.514,0-.955-.294-.588-.882.294-.441.955-.441,1.4-.441h.588C91.78,230.237,91.707,230.531,91.707,230.751Z" transform="translate(-79.584 -225.829)" fill="#06435e"/>
      <path id="Path_801" data-name="Path 801" d="M205.747,204.441l-.147.22,1.543,1.469,3.233-5.731h-2.424Z" transform="translate(-186.939 -200.4)" fill="#06435e"/>
      <path id="Path_802" data-name="Path 802" d="M4.751,251.339l.661-2.939L2.4,251.339Z" transform="translate(-2.4 -243.992)" fill="#06435e"/>
    </g>
    <g id="Group_1514" data-name="Group 1514" transform="translate(22.996 4.775)">
      <path id="Path_803" data-name="Path 803" d="M252.751,249.886l.661-3.086v.074l-3.012,3.012Z" transform="translate(-250.4 -245.11)" fill="#2273aa"/>
      <path id="Path_804" data-name="Path 804" d="M339.857,228.4c-1.984.147-3.306.735-3.6,2.2-.514,2.939,2.718,3.012,3.967,1.69l-.22.882h2.351l.367-1.763Zm.661,2.351c-.147.588-.661.808-1.249.882-.514,0-.955-.294-.661-.882.294-.441.955-.441,1.469-.441h.588C340.591,230.237,340.518,230.531,340.518,230.751Z" transform="translate(-328.322 -228.4)" fill="#2273aa"/>
      <path id="Path_805" data-name="Path 805" d="M416.89,233.2l-1.69,4.335h2.351l.661-2.939Z" transform="translate(-400.065 -232.759)" fill="#2273aa"/>
    </g>
    <g id="Group_1515" data-name="Group 1515" transform="translate(42.612 0.294)">
      <path id="Path_806" data-name="Path 806" d="M464.367,181.575v-1.029H464V180.4h.955v.147h-.367v1.029Z" transform="translate(-464 -180.327)" fill="#32a6ce"/>
      <path id="Path_807" data-name="Path 807" d="M476,180.849v-1.176h.22l.294.808a.257.257,0,0,0,.073.147c0-.073,0-.073.073-.22l.294-.808h.22v1.176h-.147v-1.029l-.367,1.029h-.22l-.367-1.029v1.029H476Z" transform="translate(-474.898 -179.6)" fill="#32a6ce"/>
    </g>
  </g>
</svg>
