<svg id="undraw_questions_re_1fy7" xmlns="http://www.w3.org/2000/svg" width="224" height="157.858" viewBox="0 0 224 157.858">
  <circle id="Ellipse_183" data-name="Ellipse 183" cx="12.199" cy="12.199" r="12.199" transform="translate(102.203 133.126)" fill="#c9415e"/>
  <path id="Path_809" data-name="Path 809" d="M455.8,343.667c6.825-2.05,14.08-4.187,19.492-9.059,4.837-4.354,8.1-11,6.1-17.532s-7.989-10.861-14.172-13.022a58.14,58.14,0,0,0-10.844-2.44c-3.987-.581-7.992-1.056-11.995-1.514q-24.312-2.781-48.807-3.4c-8.058-.2-16.114-.2-24.173-.081-7.2.1-14.777.1-21.454-2.957-5.192-2.379-9.9-6.706-11.351-12.393-1.67-6.565,1.41-13.25,5.829-18a47.192,47.192,0,0,1,7.859-6.555c3.046-2.1,6.2-4.059,9.42-5.884a131.175,131.175,0,0,1,19.827-9.141c3.38-1.229,6.81-2.289,10.27-3.268a87.871,87.871,0,0,0,8.676-2.779c5.459-2.176,10.65-5.861,12.038-11.9,1.315-5.726-.9-11.942-4.791-16.2-4.5-4.921-11.281-7.078-17.784-7.427-7.3-.392-14.432,1.435-21.294,3.754-7.318,2.473-14.479,5.317-21.952,7.32a147.7,147.7,0,0,1-22.593,4.2,61.286,61.286,0,0,1-11.339.542,13.711,13.711,0,0,1-8.6-3.416,8.506,8.506,0,0,1-2.767-7.328c.074-.5.841-.29.767.211-.5,3.383,1.8,6.5,4.637,8.1,3.275,1.845,7.259,1.848,10.905,1.637a142.627,142.627,0,0,0,23.473-3.393,188.641,188.641,0,0,0,22.2-6.852c6.936-2.512,14.028-4.963,21.438-5.507,6.43-.472,13.194.465,18.8,3.825a20.792,20.792,0,0,1,9.7,13.53,15.682,15.682,0,0,1-4.614,14.935c-4.328,3.99-10.263,5.7-15.794,7.267a144.7,144.7,0,0,0-20.524,7.347,128.84,128.84,0,0,0-19.306,10.854c-5.9,4.032-11.722,9.1-13.587,16.3a15.012,15.012,0,0,0,.746,10.068,18.4,18.4,0,0,0,5.9,7.006c5.919,4.356,13.38,5.25,20.53,5.339,8.03.1,16.061-.171,24.094-.039q24.556.4,49.012,2.989,6.128.649,12.241,1.434A110.672,110.672,0,0,1,462.952,302c6.408,1.487,12.643,4.347,16.625,9.78a15.465,15.465,0,0,1,1.317,16.91c-3.058,6.017-8.787,9.845-14.87,12.359a105.537,105.537,0,0,1-10.011,3.38.4.4,0,0,1-.211-.767Z" transform="translate(-268.524 -186.829)" fill="#f2f2f2"/>
  <circle id="Ellipse_184" data-name="Ellipse 184" cx="6.365" cy="6.365" r="6.365" transform="translate(27.021 12.066)" fill="#f2f2f2"/>
  <circle id="Ellipse_185" data-name="Ellipse 185" cx="6.365" cy="6.365" r="6.365" transform="translate(71.175 24.132)" fill="#f2f2f2"/>
  <circle id="Ellipse_186" data-name="Ellipse 186" cx="6.365" cy="6.365" r="6.365" transform="translate(108.567)" fill="#f2f2f2"/>
  <circle id="Ellipse_187" data-name="Ellipse 187" cx="6.365" cy="6.365" r="6.365" transform="translate(131.904 27.049)" fill="#f2f2f2"/>
  <circle id="Ellipse_188" data-name="Ellipse 188" cx="6.365" cy="6.365" r="6.365" transform="translate(100.346 58.342)" fill="#f2f2f2"/>
  <circle id="Ellipse_189" data-name="Ellipse 189" cx="6.365" cy="6.365" r="6.365" transform="translate(60.303 73.458)" fill="#f2f2f2"/>
  <circle id="Ellipse_190" data-name="Ellipse 190" cx="6.365" cy="6.365" r="6.365" transform="translate(102.733 97.06)" fill="#f2f2f2"/>
  <circle id="Ellipse_191" data-name="Ellipse 191" cx="6.365" cy="6.365" r="6.365" transform="translate(148.346 110.319)" fill="#f2f2f2"/>
  <circle id="Ellipse_192" data-name="Ellipse 192" cx="6.365" cy="6.365" r="6.365" transform="translate(201.649 107.402)" fill="#f2f2f2"/>
  <path id="Path_810" data-name="Path 810" d="M507.287,220.37a35.3,35.3,0,0,0-34.946,34.691c0,.176,0,1.414,0,3.032a8.949,8.949,0,0,0,8.948,8.949h0a8.955,8.955,0,0,0,8.953-8.961c0-1.1,0-1.865,0-1.912a16.972,16.972,0,1,1,26.127,14.288l0,0s-12.737,8.2-16.62,19.448h0a24.93,24.93,0,0,0-1.027,7.1c0,.988.058,9.632.17,16.648a9.225,9.225,0,0,0,9.226,9.075h0a9.228,9.228,0,0,0,9.227-9.285c-.039-6.425-.06-13.907-.06-14.45,0-6.907,6.663-13.789,12.136-18.276a36.81,36.81,0,0,0,12.659-20.154,23.007,23.007,0,0,0,.663-4.994,35.2,35.2,0,0,0-35.458-35.2Z" transform="translate(-394.193 -202.336)" fill="#c9415e"/>
  <path id="Path_811" data-name="Path 811" d="M401.347,745.881H177.978a.316.316,0,0,1,0-.632H401.347a.316.316,0,1,1,0,.631Z" transform="translate(-177.662 -588.023)" fill="#3f3d56"/>
  <circle id="Ellipse_193" data-name="Ellipse 193" cx="7.956" cy="7.956" r="7.956" transform="translate(158.703 56.485)" fill="#121212"/>
  <path id="Path_812" data-name="Path 812" d="M559.718,547.381h-3.251l-1.547-12.54h4.8Z" transform="translate(-407.76 -393.006)" fill="#a0616a"/>
  <path id="Path_813" data-name="Path 813" d="M541.057,578.626h6.27v3.948H537.109A3.948,3.948,0,0,1,541.057,578.626Z" transform="translate(-394.673 -425.18)" fill="#121212"/>
  <path id="Path_814" data-name="Path 814" d="M654.718,547.381h-3.251l-1.547-12.54h4.8Z" transform="translate(-477.567 -393.006)" fill="#a0616a"/>
  <path id="Path_815" data-name="Path 815" d="M636.057,578.626h6.27v3.948H632.109A3.948,3.948,0,0,1,636.057,578.626Z" transform="translate(-464.48 -425.18)" fill="#121212"/>
  <circle id="Ellipse_194" data-name="Ellipse 194" cx="6.513" cy="6.513" r="6.513" transform="translate(158.936 59.416)" fill="#a0616a"/>
  <path id="Path_816" data-name="Path 816" d="M751.664,453.272l2.914-6.7a8.322,8.322,0,0,0-1.843-9.441,8.471,8.471,0,0,0-.814-.708,8.2,8.2,0,0,0-5.036-1.742,8.534,8.534,0,0,0-3.553.79c-.1.042-.188.087-.284.133-.183.087-.363.183-.538.281a8.4,8.4,0,0,0-4.164,6.333L737.059,453c-.323.846-11.865,31.4-7.828,54.719a1.185,1.185,0,0,0,1.013.973l4.092.557a1.192,1.192,0,0,0,1.329-.936l6.866-32.727a.929.929,0,0,1,1.8-.061l9.7,34.416a1.186,1.186,0,0,0,1.143.87,1.362,1.362,0,0,0,.231-.021l5-.963a1.186,1.186,0,0,0,.963-1.276C760.635,500.359,756.731,459.326,751.664,453.272Z" transform="translate(-582.332 -359.817)" fill="#1f755b"/>
  <path id="Path_817" data-name="Path 817" d="M706.052,414.8a2.667,2.667,0,0,0,2.809,2.971l3.641,8.749,2.754-4.082-3.88-7.683a2.681,2.681,0,0,0-5.325.045Z" transform="translate(-565.915 -343.454)" fill="#a0616a"/>
  <path id="Path_818" data-name="Path 818" d="M791.83,508.263a2.667,2.667,0,0,0,2.235-3.424l7.66-5.579-4.612-1.727-6.567,5.563a2.681,2.681,0,0,0,1.284,5.168Z" transform="translate(-626.742 -405.998)" fill="#a0616a"/>
  <path id="Path_819" data-name="Path 819" d="M727.016,451.443a4.525,4.525,0,0,1-.875-.086,4.324,4.324,0,0,1-3.168-2.55l-5.1-6.22a1.194,1.194,0,0,1,.295-1.772l3.629-2.246a1.193,1.193,0,0,1,1.648.4l3.6,5.923,6.885-5.088a2.578,2.578,0,0,1,3,4.127l-6.872,6.268a4.31,4.31,0,0,1-3.035,1.249Z" transform="translate(-574.414 -362.54)" fill="#1f755b"/>
  <path id="Path_820" data-name="Path 820" d="M811.005,466.186h-.028a1.2,1.2,0,0,1-.878-.416l-3.226-3.764a1.193,1.193,0,0,1,.244-1.77l6.041-4.028-5.473-6.58a2.578,2.578,0,0,1,3.948-3.231l6.652,6.5a4.382,4.382,0,0,1-.975,7.144l-5.437,5.769A1.2,1.2,0,0,1,811.005,466.186Z" transform="translate(-639.801 -367.929)" fill="#1f755b"/>
  <path id="Path_821" data-name="Path 821" d="M785.323,442.368a1.235,1.235,0,0,1-.155-.01,1.183,1.183,0,0,1-.984-.814l-2.424-7.433a.818.818,0,0,1,.423-.988l.079-.037c.071-.034.142-.067.214-.1a8.639,8.639,0,0,1,3.607-.8,8.308,8.308,0,0,1,4.551,1.368.83.83,0,0,1,.239,1.139l-4.548,7.125a1.181,1.181,0,0,1-1,.552Z" transform="translate(-621.53 -357.981)" fill="#e6e6e6"/>
  <circle id="Ellipse_195" data-name="Ellipse 195" cx="2.603" cy="2.603" r="2.603" transform="translate(170.328 55.682)" fill="#121212"/>
  <path id="Path_822" data-name="Path 822" d="M777.006,361.365h0a6.9,6.9,0,0,0-6.9,6.895v2.917H773.7l1.716-2.917.515,2.917h10.888L783.9,368.26A6.9,6.9,0,0,0,777.006,361.365Z" transform="translate(-612.999 -305.941)" fill="#121212"/>
  <path id="Path_823" data-name="Path 823" d="M834.809,357.689a4.018,4.018,0,0,1,4.371-2.757,5.567,5.567,0,0,1,3.752,3.1,30.532,30.532,0,0,1,1.668,4.754,8.61,8.61,0,0,0,2.6,4.239,3.865,3.865,0,0,0,4.665.251,5.335,5.335,0,0,1-9.939,1.9,11.541,11.541,0,0,1-1.069-4.044,8.839,8.839,0,0,0-1.289-3.962,3.277,3.277,0,0,0-3.661-1.363Z" transform="translate(-660.54 -301.187)" fill="#121212"/>
  <path id="Path_824" data-name="Path 824" d="M483.465,303.188h0a8.949,8.949,0,0,1-8.949-8.948c0-1.62,0-2.857,0-3.033a34.874,34.874,0,0,1,4.073-15.887,34.953,34.953,0,0,0-6.725,20.13c0,.176,0,1.414,0,3.032a8.949,8.949,0,0,0,8.948,8.949h0a8.956,8.956,0,0,0,8.615-6.521A8.916,8.916,0,0,1,483.465,303.188Z" transform="translate(-393.845 -242.714)" fill="#121212"/>
  <path id="Path_825" data-name="Path 825" d="M568.376,279.667a16.973,16.973,0,0,1,14.76,23.712,16.971,16.971,0,1,0-28.488-17.764A16.938,16.938,0,0,1,568.376,279.667Z" transform="translate(-454.675 -242.777)" fill="#121212"/>
  <path id="Path_826" data-name="Path 826" d="M583.413,490.127h0a9.226,9.226,0,0,1-9.226-9.078c-.112-7.014-.17-15.658-.17-16.646a24.922,24.922,0,0,1,1.027-7.1h0a25.215,25.215,0,0,1,1.457-3.368,29.187,29.187,0,0,0-4.109,7.611h0a24.932,24.932,0,0,0-1.027,7.1c0,.988.058,9.632.17,16.648a9.225,9.225,0,0,0,9.226,9.075h0a9.229,9.229,0,0,0,8.857-6.641A9.192,9.192,0,0,1,583.413,490.127Z" transform="translate(-466.958 -373.963)" fill="#121212"/>
  <path id="Path_827" data-name="Path 827" d="M126.539,547.837h3.251l1.547-12.54h-4.8Z" transform="translate(-92.981 -393.34)" fill="#ffb8b8"/>
  <path id="Path_828" data-name="Path 828" d="M0,0H10.218V3.948H3.948A3.948,3.948,0,0,1,0,0Z" transform="translate(43.078 157.515) rotate(179.997)" fill="#121212"/>
  <path id="Path_829" data-name="Path 829" d="M82.539,547.837H85.79l1.547-12.54h-4.8Z" transform="translate(-60.65 -393.34)" fill="#ffb8b8"/>
  <path id="Path_830" data-name="Path 830" d="M0,0H10.218V3.948H3.948A3.948,3.948,0,0,1,0,0Z" transform="translate(31.41 157.515) rotate(179.997)" fill="#121212"/>
  <path id="Path_831" data-name="Path 831" d="M258.864,599.856l-3.176-.167a1.239,1.239,0,0,1-1.172-1.317l3.8-42.024,17.479,4.717,1.684-.459-5.266,37.2a1.245,1.245,0,0,1-1.156,1.046l-3.423.159a1.24,1.24,0,0,1-1.308-1.272l.62-22.328a.413.413,0,0,0-.818-.1l-5.982,23.552a1.232,1.232,0,0,1-1.212.988Z" transform="translate(-234.134 -449.217)" fill="#121212"/>
  <circle id="Ellipse_196" data-name="Ellipse 196" cx="6.513" cy="6.513" r="6.513" transform="translate(27.628 59.72)" fill="#ffb8b8"/>
  <path id="Path_832" data-name="Path 832" d="M265.48,445.693l.716,15.452.259,5.622a1.231,1.231,0,0,0,.815,1.107l16.8,6.084a1.189,1.189,0,0,0,.424.074,1.232,1.232,0,0,0,1.237-1.27l-.689-27.783a9.794,9.794,0,0,0-8.153-9.461c-.162-.025-.328-.05-.493-.072a9.613,9.613,0,0,0-7.734,2.5,9.875,9.875,0,0,0-3.179,7.742Z" transform="translate(-242.183 -360.323)" fill="#ccc"/>
  <path id="Path_833" data-name="Path 833" d="M346.128,536.227a2.669,2.669,0,0,1-1.424-4.038l-5.7-7.574,4.915-.3,4.655,7.239a2.681,2.681,0,0,1-2.451,4.677Z" transform="translate(-296.221 -425.676)" fill="#ffb8b8"/>
  <path id="Path_834" data-name="Path 834" d="M324.393,477.645a1.231,1.231,0,0,1-.674-.668l-8.581-20.445a3.305,3.305,0,1,1,6.1-2.558l8.581,20.445a1.241,1.241,0,0,1-.663,1.623l-3.81,1.6a1.232,1.232,0,0,1-.949,0Z" transform="translate(-278.491 -372.502)" fill="#ccc"/>
  <path id="Path_835" data-name="Path 835" d="M298.1,500.481l8.242-15.781a1.294,1.294,0,0,1,1.744-.547L320.05,490.4a1.294,1.294,0,0,1,.547,1.744l-8.242,15.781a1.294,1.294,0,0,1-1.744.547l-11.963-6.248a1.294,1.294,0,0,1-.547-1.744Z" transform="translate(-266.055 -396.059)" fill="#1f755b"/>
  <path id="Path_836" data-name="Path 836" d="M286.03,501.15a2.669,2.669,0,0,0-4.115-1.183l-7.9-5.239L274,499.653l7.5,4.22a2.681,2.681,0,0,0,4.524-2.723Z" transform="translate(-248.456 -403.938)" fill="#ffb8b8"/>
  <path id="Path_837" data-name="Path 837" d="M255.221,465.014l-6.454-5.112a4.552,4.552,0,0,1-2.075-7.2l5.86-7.68a2.677,2.677,0,0,1,4.543,2.727l-4.637,7.584,6.814,3.232a1.239,1.239,0,0,1,.517,1.782l-2.75,4.353a1.242,1.242,0,0,1-.84.56l-.021,0A1.245,1.245,0,0,1,255.221,465.014Z" transform="translate(-227.631 -366.694)" fill="#ccc"/>
  <path id="Path_838" data-name="Path 838" d="M278.972,381.068a.566.566,0,0,1,.492-.748,1.307,1.307,0,0,1,.922.455,3.668,3.668,0,0,0,.814.7.7.7,0,0,0,.922-.167,1.282,1.282,0,0,0-.049-1,9.786,9.786,0,0,1-.432-2.591,4.562,4.562,0,0,1,.652-2.771,3.666,3.666,0,0,1,3.141-1.336,21.11,21.11,0,0,1,3.529.625,1.185,1.185,0,0,0,1.154-.194,1.487,1.487,0,0,0,.06-1.327,9.215,9.215,0,0,0-1.4-3.329,5.012,5.012,0,0,0-3.2-1.8,7.675,7.675,0,0,0-3.57.405,9.573,9.573,0,0,0-4.689,3.267,7.753,7.753,0,0,0-1.479,5.728,7.072,7.072,0,0,0,2.622,4.47Z" transform="translate(-249.752 -310.473)" fill="#121212"/>
  <path id="Path_839" data-name="Path 839" d="M572.506,682.618a12.2,12.2,0,0,1-4.527-18.958,12.2,12.2,0,1,0,16.593,17.626A12.191,12.191,0,0,1,572.506,682.618Z" transform="translate(-460.793 -528.071)" fill="#121212"/>
</svg>
