<svg id="undraw_team_up_re_84ok" xmlns="http://www.w3.org/2000/svg" width="233.781" height="236.779" viewBox="0 0 233.781 236.779">
  <path id="Path_840" data-name="Path 840" d="M115.457,88.744,113.675,98.1l8.886,2.505-1.1-9.99Z" transform="translate(-63.024 -49.202)" fill="#a0616a"/>
  <path id="Path_841" data-name="Path 841" d="M0,522.785a.529.529,0,0,0,.53.53H233.251a.53.53,0,0,0,0-1.06H.53A.529.529,0,0,0,0,522.785Z" transform="translate(0 -289.55)" fill="#3f3d56"/>
  <g id="Group_1604" data-name="Group 1604" transform="translate(47.739 105.739)">
    <path id="Path_842" data-name="Path 842" d="M218.6,238.309H126.956a18.817,18.817,0,0,0-18.817,18.817v88.863a18.817,18.817,0,0,0,18.817,18.817H218.6a18.817,18.817,0,0,0,18.817-18.817V257.126A18.817,18.817,0,0,0,218.6,238.309h0Z" transform="translate(-107.693 -237.863)" fill="#fff"/>
    <path id="Path_843" data-name="Path 843" d="M218.043,364.7H126.4a19.284,19.284,0,0,1-19.262-19.262V256.571A19.284,19.284,0,0,1,126.4,237.309h91.642a19.284,19.284,0,0,1,19.262,19.262v88.863A19.284,19.284,0,0,1,218.043,364.7ZM126.4,238.2a18.392,18.392,0,0,0-18.371,18.371v88.863A18.392,18.392,0,0,0,126.4,363.8h91.642a18.392,18.392,0,0,0,18.371-18.371V256.571A18.392,18.392,0,0,0,218.043,238.2Z" transform="translate(-107.139 -237.309)" fill="#3f3d56"/>
    <path id="Path_844" data-name="Path 844" d="M321.578,317.719H284.743a2.833,2.833,0,1,1,0-5.667h36.835a2.833,2.833,0,0,1,0,5.667h0Z" transform="translate(-204.035 -278.748)" fill="#c9415e"/>
    <path id="Path_845" data-name="Path 845" d="M246.793,370.7H210.988a1.637,1.637,0,1,1,0-3.274h35.805a1.637,1.637,0,0,1,0,3.274Z" transform="translate(-163.807 -309.45)" fill="#c9415e"/>
    <rect id="Rectangle_155" data-name="Rectangle 155" width="20.719" height="2.656" rx="0.31" transform="translate(11.798 6.531)" fill="#c9415e"/>
    <circle id="Ellipse_197" data-name="Ellipse 197" cx="2.125" cy="2.125" r="2.125" transform="translate(99.109 4.938)" fill="#3f3d56"/>
    <circle id="Ellipse_198" data-name="Ellipse 198" cx="2.125" cy="2.125" r="2.125" transform="translate(104.953 4.938)" fill="#3f3d56"/>
    <circle id="Ellipse_199" data-name="Ellipse 199" cx="2.125" cy="2.125" r="2.125" transform="translate(110.796 4.938)" fill="#3f3d56"/>
    <path id="Path_846" data-name="Path 846" d="M149.868,393.785a.529.529,0,0,0,.53.53h91.027a.53.53,0,0,0,0-1.06H150.4a.529.529,0,0,0-.53.53Z" transform="translate(-130.829 -323.769)" fill="#3f3d56"/>
  </g>
  <g id="Group_1608" data-name="Group 1608" transform="translate(43.145 23.761)">
    <path id="uuid-d0b76542-8f08-4363-846d-0cc3b89caf22-36" d="M199.338,99.142c1.938-1.6,4.335-1.9,5.354-.666s.274,3.531-1.665,5.133a6.291,6.291,0,0,1-2.655,1.334l-8.3,6.681-3.052-3.96,8.5-6.166a6.292,6.292,0,0,1,1.812-2.356Z" transform="translate(-147.944 -77.936)" fill="#a0616a"/>
    <path id="Path_847" data-name="Path 847" d="M104.553,120.329a6.11,6.11,0,0,1,1.907-4.5c2.192-1.871,5.284-1.114,6.369-.848,2.506.614,2.711,1.689,5.064,2.793,4.4,2.066-1.114,1.009,1.506.346.907-.229,13.952-1.134,17.2-3.133,6.315-3.887,10.619-6.244,10.619-6.244l2.813,5.626a50.142,50.142,0,0,1-9.793,9.846c-5.872,4.3-8.809,6.447-13.271,7.277-.384.071-9.835,1.685-17.447-4-1.736-1.3-4.917-3.674-4.967-7.16h0Z" transform="translate(-101.111 -84.049)" fill="#121212"/>
    <circle id="Ellipse_200" data-name="Ellipse 200" cx="9.799" cy="9.799" r="9.799" transform="translate(2.367 2.372)" fill="#a0616a"/>
    <g id="Group_1605" data-name="Group 1605" transform="translate(18.602 45.579)">
      <path id="Path_848" data-name="Path 848" d="M277.336,215.544l-10.092-10.331-5.209,5.434,7.519,9.905,7.458.853Z" transform="translate(-207.025 -183.114)" fill="#a0616a"/>
      <path id="Path_849" data-name="Path 849" d="M151.263,168.675a6.876,6.876,0,0,0,4.259-.562,5.825,5.825,0,0,0,2.063-1.993c2.63-3.949,12.722-10.108,21.78-10.487a8.666,8.666,0,0,1,4.629.792c1.74.907,2.435,2.206,4.643,5.25,1.208,1.665,2.544,3.234,3.767,4.888,7.157,9.685,9.87,10.445,9.593,13.55-.308,3.445-4.023,6.714-6.493,6.336-1.011-.155-1.4-.858-2.754-2.281-3.962-4.174-5.6-3.4-8.421-6.6-3.293-3.733-2.862-6.828-4.58-6.947-1.593-.111-2.27,2.529-5.672,6.037-1.556,1.6-2.665,2.341-6.041,4.684-13.149,9.122-13.359,9.763-16.013,10.491-1.161.318-9.4,2.578-12.337-1.018-4.594-5.626,6.259-22.583,11.577-22.141h0Z" transform="translate(-138.579 -155.617)" fill="#1f755b"/>
      <path id="Path_850" data-name="Path 850" d="M277.5,228.23a2.969,2.969,0,0,0,1.889-1.619,2.154,2.154,0,0,0-.31-1.871c-.451-.6-1.117-.675-1.091-.78a6.494,6.494,0,0,1,3.349.514,13.4,13.4,0,0,1,3.689,2.126c1.508,1.178,1.305,1.414,2.251,2.093,2.9,2.084,5.627.442,7.2,2.4a3.1,3.1,0,0,1,.61,2.691c-.512,1.739-3,2.338-4.366,2.647-3.28.744-5.763.137-8.355-.3-8.816-1.486-13.77-.133-14.433-2.175-.125-.387.078-.354.758-3.19.671-2.8.649-3.569,1.22-3.793.86-.338,1.438,1.2,3.6,1.723a6.141,6.141,0,0,0,3.986-.462Z" transform="translate(-210.276 -193.466)" fill="#121212"/>
    </g>
    <g id="Group_1606" data-name="Group 1606" transform="translate(12.137 62.623)">
      <path id="Path_851" data-name="Path 851" d="M243.774,286.555l-2.55-14.215-7.362,1.571.66,12.418,5.692,4.894Z" transform="translate(-184.941 -237.375)" fill="#a0616a"/>
      <path id="Path_852" data-name="Path 852" d="M146.1,194.66a6.877,6.877,0,0,0,3.84,1.927,5.826,5.826,0,0,0,2.826-.49c4.393-1.791,16.2-1.22,23.911,3.553a8.666,8.666,0,0,1,3.385,3.254c.931,1.728.776,3.193.894,6.952.065,2.056.29,4.1.372,6.16.483,12.033,2.3,14.186.328,16.6-2.189,2.678-7.1,3.3-8.93,1.6-.75-.7-.679-1.5-1-3.434-.934-5.678-2.723-5.961-3.262-10.19-.629-4.938,1.466-7.257.111-8.32-1.256-.986-3.3.818-8.083,1.81-2.189.454-3.52.441-7.629.483-16,.164-16.537.577-19.141-.311-1.139-.389-9.227-3.147-9.637-7.77-.642-7.235,17.86-15.172,22.012-11.819h0Z" transform="translate(-124.069 -193.869)" fill="#1f755b"/>
      <path id="Path_853" data-name="Path 853" d="M233.524,298.066a2.969,2.969,0,0,0,2.473-.279,2.154,2.154,0,0,0,.794-1.722c-.038-.746-.546-1.186-.464-1.258a6.5,6.5,0,0,1,2.483,2.306,13.4,13.4,0,0,1,1.859,3.831c.587,1.821.286,1.9.688,3,1.232,3.355,4.408,3.525,4.61,6.025a3.1,3.1,0,0,1-1.007,2.57c-1.4,1.151-3.8.247-5.1-.262-3.132-1.226-4.845-3.123-6.745-4.94-6.461-6.18-11.32-7.842-10.721-9.9.113-.39.263-.249,2.419-2.214,2.127-1.94,2.541-2.589,3.14-2.453.9.2.517,1.8,2.015,3.45a6.14,6.14,0,0,0,3.557,1.856h0Z" transform="translate(-178.555 -248.687)" fill="#121212"/>
    </g>
    <path id="Path_854" data-name="Path 854" d="M111.5,67.371c.381-1.365-.1-1.862.391-2.475a6.418,6.418,0,0,1,1.954-.912h0c-.518-3.008-.13-3.516-.13-3.516a2.2,2.2,0,0,1,1.954-.651c1.29.162,1.519,1.329,2.344,1.3,1.14-.036,2.508-2.319,2.084-4.3-.346-1.614-1.84-2.813-2.214-2.6s-1.707-.7-2.214-.521c-.346.124-1.975-.041-2.344.13-.4.187-1.558,1.352-1.669,1.205-.767-1.02-.751-1.376-1.2-1.6-.789-.39-1.647.33-3.126,1.042-3.043,1.464-3.934.591-5.34,1.823-.71.623-1.091,1.813-1.823,4.168-1.024,3.293-1.537,4.94-1.042,6.512.5,1.6,1.248,1.254,2.344,3.516,1.221,2.518.8,3.982,1.954,4.558a2.449,2.449,0,0,0,2.865-.651c.926-1.392-1.468-3.276-.651-5.47.5-1.347,2.047-2.368,3-2.084,1.072.322,1.151,2.244,1.823,2.214.576-.025.975-1.455,1.042-1.693h0Z" transform="translate(-98 -53.326)" fill="#121212"/>
    <path id="Path_855" data-name="Path 855" d="M103.187,104.789c2.005-2.248,10.173.079,10.94,3.647.315,1.468-.849,2.087-.521,3.777.479,2.471,3.194,2.3,5.21,4.819,2.861,3.572-.086,7.063,3.126,13.024a10.552,10.552,0,0,0,2.475,3.386c2.776,2.384,5.359,1.567,6.772,3.777a5.746,5.746,0,0,1,.521,4.168c-.417,1.957-1.548,2.434-2.344,4.037-1.325,2.668.175,4.627.26,7.814.107,3.988-2.013,9.517-6.251,11.331-4.762,2.038-10.505-1.337-13.284-4.689-1.658-2-2.14-3.844-2.865-6.121-3.242-10.176-5.074-9.255-7.554-17.322-2.835-9.221-3.392-20.025,0-23.443a9.763,9.763,0,0,0,2.475-3.386c1.06-2.538.144-3.812,1.042-4.819h0Z" transform="translate(-97.108 -81.367)" fill="#121212"/>
    <g id="Group_1607" data-name="Group 1607" transform="translate(0 31.854)">
      <path id="uuid-35da8825-ceb1-46f8-a8e3-884fcc945dd4-37" d="M161.661,210.777c1.555,1.975,1.8,4.379.538,5.368s-3.536.19-5.091-1.787a6.291,6.291,0,0,1-1.271-2.686l-6.482-8.453,3.349-2.555,6.644,8.245a6.292,6.292,0,0,1,2.312,1.867h0Z" transform="translate(-125.951 -166.868)" fill="#a0616a"/>
      <path id="Path_856" data-name="Path 856" d="M108.8,124.952a6.11,6.11,0,0,1,4.8.948c2.279,1.764,2.169,4.946,2.13,6.062-.089,2.578-1.1,3-1.7,5.528-1.125,4.732,1.017,9.129,2.2,11.558a25.23,25.23,0,0,0,4.344,6.185,54.854,54.854,0,0,0,9.639,8.225l-4.883,4.34s-7.778-2.371-13.048-7.12c-5.406-4.872-13.719-22.109-15.442-26.308-.148-.362,1.954,5.517,5.968-3.095.916-1.964,2.593-5.564,6-6.323h0Z" transform="translate(-96.83 -124.815)" fill="#121212"/>
    </g>
  </g>
  <g id="Group_1610" data-name="Group 1610" transform="translate(83.899 148.381)">
    <path id="uuid-ba1531a6-e7ab-4297-b996-1d676f43fe3f-38" d="M267.6,419.715c-3.1.476-5.374,2.463-5.071,4.438s3.064,3.19,6.169,2.714a7.857,7.857,0,0,0,3.451-1.366l13.124-2.182-.876-5.188L271.3,419.985a7.858,7.858,0,0,0-3.7-.269Z" transform="translate(-229.437 -380.203)" fill="#ffb6b6"/>
    <path id="Path_857" data-name="Path 857" d="M335.631,384.745l-5.089,10.8-25.583,8.612-21.228,1.132-.532-5.1,23.007-4.81,23.608-11.156Z" transform="translate(-240.91 -361.403)" fill="#1f755b"/>
    <path id="Path_858" data-name="Path 858" d="M281.934,471.731l-4.569,11.556-5.912-4.031,3.494-12.094Z" transform="translate(-234.398 -407.386)" fill="#ffb6b6"/>
    <path id="Path_859" data-name="Path 859" d="M237.1,467.765,225.01,479.322l4.837,5.106,12.363-9.675Z" transform="translate(-208.649 -407.721)" fill="#ffb6b6"/>
    <path id="Path_860" data-name="Path 860" d="M389.237,374.629l-.135-.941-3.091-6.047L375.8,370.329l1.881,8.331Z" transform="translate(-292.25 -352.209)" fill="#ffb6b6"/>
    <path id="Path_861" data-name="Path 861" d="M330.428,444.165l.314,4.037s1.3,16.926-9.183,18.27-15.05,2.688-21.232-7.794l-9.675-17.2L285,448.2l-7.518-5.918s5.375-20.963,9.675-21.769a9.818,9.818,0,0,1,1.6-.162,11.073,11.073,0,0,1,9.046,4.52L310,441.208l4.434-2.016,15.991,4.972h0Z" transform="translate(-237.742 -381.433)" fill="#121212"/>
    <path id="Path_862" data-name="Path 862" d="M249.627,496.46l2.419-4.569,6.988,4.838s1.612,5.913-.806,6.719-9.138-.269-9.138-.269-12.363,2.687-12.631.269,5.644-2.956,5.644-2.956l7.525-4.031Z" transform="translate(-214.991 -421.097)" fill="#121212"/>
    <path id="Path_863" data-name="Path 863" d="M282,457.119,263.318,445.35l-9.541,8.544-6.45-7.525s11.825-17.469,15.319-18.275a90.058,90.058,0,0,1,9.138-1.344l17.2,15.857L282,457.119Z" transform="translate(-221.022 -384.981)" fill="#121212"/>
    <path id="Path_864" data-name="Path 864" d="M204.383,491.288l6.181,6.719-.815.7s-1.6,6.984-5.366,4.622-4.031-2.9-4.031-2.9-10.75,2.419-11.825-1.881,1.881-3.494,1.881-3.494l2.684,1.612,11.291-5.375Z" transform="translate(-188.292 -420.762)" fill="#121212"/>
    <circle id="Ellipse_201" data-name="Ellipse 201" cx="8.6" cy="8.6" r="8.6" transform="translate(78.174 3.875)" fill="#ffb6b6"/>
    <path id="Path_865" data-name="Path 865" d="M365.554,383.768l12.363-3.763s4.838,11.288,4.031,16.394-8.152,29.434-8.152,29.434l-16.3-9.008a41.65,41.65,0,0,0-1.075-7.794c-.806-2.419-3.359-9.809,2.284-15.991s6.853-9.272,6.853-9.272h0Z" transform="translate(-280.795 -359.065)" fill="#1f755b"/>
    <g id="Group_1609" data-name="Group 1609" transform="translate(55.746 30.126)">
      <path id="uuid-375aaccb-22f9-42b6-a352-baabb12db8d2-39" d="M315.2,499.794c-2.012,2.41-2.4,5.4-.865,6.683s4.408.364,6.421-2.048a7.858,7.858,0,0,0,1.683-3.307l8.4-10.321-4.09-3.31-8.591,10.055a7.858,7.858,0,0,0-2.954,2.248h0Z" transform="translate(-313.4 -448.783)" fill="#ffb6b6"/>
      <path id="Path_866" data-name="Path 866" d="M361.581,400.619l2.922,11.574-14.3,22.893L335.6,449.76l-4.732-3.926,14.725-18.321,11.161-23.605Z" transform="translate(-323.085 -400.619)" fill="#1f755b"/>
    </g>
    <path id="Path_867" data-name="Path 867" d="M363.368,344.006c2.206-.005,2.331.009,2.687,0,2.736-.072,3.451-1.148,4.838-1.075,2.475.131-.792,12.539-2.15,18.275-1.332,5.626,3.17,10.667,3.494,11.019,4.57,4.97,12.6,5.879,13.975,3.763,1.115-1.713-2.836-4.318-1.881-8.063.934-3.66,5.245-3.271,6.45-6.719,1.262-3.611-2.979-5.433-5.644-14.244-1.53-5.06-1.26-6-2.688-9.138-3.817-8.378-22.526-4.811-20.425,2.956.406,1.5-.675,3.23,1.344,3.225Z" transform="translate(-284.522 -333.009)" fill="#121212"/>
  </g>
  <g id="Group_1611" data-name="Group 1611" transform="translate(95.185)">
    <path id="Path_868" data-name="Path 868" d="M308.644,57.284H218.258a4.641,4.641,0,0,1-4.636-4.636V4.636A4.641,4.641,0,0,1,218.258,0h90.386a4.641,4.641,0,0,1,4.636,4.636V52.648a4.641,4.641,0,0,1-4.636,4.636Z" transform="translate(-213.623)" fill="#fff"/>
    <path id="Path_869" data-name="Path 869" d="M308.644,57.284H218.258a4.641,4.641,0,0,1-4.636-4.636V4.636A4.641,4.641,0,0,1,218.258,0h90.386a4.641,4.641,0,0,1,4.636,4.636V52.648a4.641,4.641,0,0,1-4.636,4.636ZM218.258.774A3.866,3.866,0,0,0,214.4,4.636V52.648a3.866,3.866,0,0,0,3.861,3.861h90.386a3.866,3.866,0,0,0,3.861-3.861V4.636A3.866,3.866,0,0,0,308.644.774H218.258Z" transform="translate(-213.623)" fill="#3f3d56"/>
    <circle id="Ellipse_202" data-name="Ellipse 202" cx="1.161" cy="1.161" r="1.161" transform="translate(86.884 3.484)" fill="#3f3d56"/>
    <circle id="Ellipse_203" data-name="Ellipse 203" cx="1.161" cy="1.161" r="1.161" transform="translate(89.98 3.484)" fill="#3f3d56"/>
    <circle id="Ellipse_204" data-name="Ellipse 204" cx="1.161" cy="1.161" r="1.161" transform="translate(93.077 3.484)" fill="#3f3d56"/>
    <path id="Path_870" data-name="Path 870" d="M227.667,52.554a.581.581,0,0,0-.581.581.586.586,0,0,0,.581.581h86.884a.581.581,0,0,0,.581-.581.586.586,0,0,0-.581-.581Z" transform="translate(-221.087 -29.137)" fill="#e6e6e6"/>
    <path id="Path_871" data-name="Path 871" d="M303.473,52.119v1.548H227.426a.78.78,0,0,1-.774-.774.776.776,0,0,1,.774-.774Z" transform="translate(-220.846 -28.896)" fill="#c9415e"/>
    <path id="Path_872" data-name="Path 872" d="M409.652,41.752H401.91a1.548,1.548,0,0,1,0-3.1h7.741a1.548,1.548,0,0,1,0,3.1Z" transform="translate(-317.155 -21.431)" fill="#e6e6e6"/>
    <path id="Path_873" data-name="Path 873" d="M262.4,23.51H227.766a1.548,1.548,0,1,1,0-3.1H262.4a1.548,1.548,0,1,1,0,3.1Z" transform="translate(-220.606 -11.318)" fill="#e6e6e6"/>
    <path id="Path_874" data-name="Path 874" d="M227.667,91.643a.581.581,0,0,0-.581.581.586.586,0,0,0,.581.581h86.884a.581.581,0,0,0,.581-.581.586.586,0,0,0-.581-.581Z" transform="translate(-221.087 -50.809)" fill="#e6e6e6"/>
    <path id="Path_875" data-name="Path 875" d="M273.67,91.209v1.548H227.427a.78.78,0,0,1-.774-.774.776.776,0,0,1,.774-.774Z" transform="translate(-220.847 -50.568)" fill="#c9415e"/>
    <path id="Path_876" data-name="Path 876" d="M409.652,80.841H401.91a1.548,1.548,0,0,1,0-3.1h7.741a1.548,1.548,0,0,1,0,3.1Z" transform="translate(-317.155 -43.103)" fill="#e6e6e6"/>
  </g>
</svg>
