<?xml version="1.0" encoding="utf-8"?>
<!-- Generator: Adobe Illustrator 26.1.0, SVG Export Plug-In . SVG Version: 6.00 Build 0)  -->
<svg version="1.1" id="Layer_1" xmlns="http://www.w3.org/2000/svg" xmlns:xlink="http://www.w3.org/1999/xlink" x="0px" y="0px"
	 viewBox="0 0 212.1 212.1" style="enable-background:new 0 0 212.1 212.1;" xml:space="preserve">
<style type="text/css">
	.st0{fill:#5AFEAE;}
	.st1{fill:#292929;}
</style>
<path class="st0" d="M166.2,139.5H45.8c-11.6,0-20.9-9.4-20.9-20.9V93.5c0-11.6,9.4-20.9,20.9-20.9h120.4c11.6,0,20.9,9.4,20.9,20.9
	v25.1C187.1,130.1,177.8,139.5,166.2,139.5z"/>
<g>
	<path class="st1" d="M157.9,94.1l-8.3,31.7l0,0.1h6.5l8.3-31.7H157.9z M55.3,112.1c-1,0.5-2,0.7-3.1,0.7c-2.3,0-3.6-0.4-3.8-2.3
		v-0.1c0-0.1,0-0.1,0-0.2v-5.5l0-0.6v-3.9h0v-1.6l0-0.6v-3.7L42.6,95c3.9-0.8,6.1-3.8,6.1-6.9v-1.9h-6.5v8.9l-0.4,0.1v16.4
		c0.2,4.6,3.3,7.4,8.2,7.4c1.8,0,3.7-0.4,5.2-1.1l0,0L55.3,112.1L55.3,112.1L55.3,112.1z"/>
	<path class="st1" d="M56.3,92.9l-18.2,2.8v4.6l18.2-2.8C56.3,97.5,56.3,92.9,56.3,92.9z M56.3,99.7l-18.2,2.8v4.4l18.2-2.8
		C56.3,104.1,56.3,99.7,56.3,99.7z M76.7,101.8c-0.3-5.1-3.5-8.2-8.7-8.2c-3,0-5.5,1.2-7.2,3.4c-1.7,2.2-2.6,5.4-2.6,9.3
		c0,3.9,0.9,7.1,2.6,9.3c1.7,2.2,4.2,3.3,7.2,3.3c5.2,0,8.4-3,8.7-8.2v7.7h6.5V94.2l-6.5,1L76.7,101.8L76.7,101.8z M77.1,106.3
		c0,4.5-2.4,7.5-6.1,7.5c-3.8,0-6.1-2.8-6.1-7.5c0-4.7,2.3-7.5,6.1-7.5c1.8,0,3.4,0.7,4.5,2.1C76.5,102.2,77.1,104.1,77.1,106.3
		C77.1,106.3,77.1,106.3,77.1,106.3z M102.1,93.6c-5.2,0-8.4,3-8.7,8.2V87.1l-6.5,1v30.3h6.5v-7.7c0.3,5.2,3.5,8.2,8.7,8.2
		c6.1,0,9.8-4.7,9.8-12.6S108.2,93.6,102.1,93.6z M99.2,113.8c-3.7,0-6.1-2.9-6.1-7.5c0-2.2,0.6-4.1,1.6-5.4
		c1.1-1.4,2.6-2.1,4.5-2.1c3.8,0,6.1,2.8,6.1,7.5C105.3,111,103,113.8,99.2,113.8L99.2,113.8z M129.5,93.6c-5.2,0-8.4,3-8.7,8.2
		V87.1l-6.5,1v30.3h6.5v-7.7c0.3,5.2,3.5,8.2,8.7,8.2c6.1,0,9.8-4.7,9.8-12.6S135.6,93.6,129.5,93.6L129.5,93.6z M126.6,113.8
		c-3.7,0-6.1-2.9-6.1-7.5c0-2.2,0.6-4.1,1.6-5.4c1.1-1.4,2.6-2.1,4.5-2.1c3.8,0,6.1,2.8,6.1,7.5C132.7,111,130.4,113.8,126.6,113.8
		L126.6,113.8z M139.3,94.1h6.9l5.6,24.3h-6.2C145.6,118.4,139.3,94.1,139.3,94.1z M169.7,96.6v-1.9h-0.8v-0.4h2.1v0.4h-0.8v1.9
		H169.7z M171.1,96.6v-2.4h0.8l0.4,1.1c0.1,0.3,0.2,0.4,0.2,0.5c0-0.1,0.1-0.2,0.2-0.5l0.4-1.1h0.8v2.4h-0.5v-1.9l-0.7,1.9h-0.5
		l-0.6-1.9v1.9L171.1,96.6L171.1,96.6z"/>
</g>
</svg>
