<svg xmlns="http://www.w3.org/2000/svg" xmlns:xlink="http://www.w3.org/1999/xlink" width="20.751" height="20.142" viewBox="0 0 20.751 20.142">
  <defs>
    <clipPath id="clip-path">
      <rect id="crop" width="18.992" height="18.311" transform="translate(17.298 24.518) rotate(-155.618)" fill="none"/>
    </clipPath>
  </defs>
  <g id="Place_Your_Design_Here_Double_Click_to_Edit_" data-name="Place Your Design Here (Double Click to Edit)" transform="matrix(-0.948, 0.318, -0.318, -0.948, 26.06, 17.736)">
    <g id="Place_Your_Design_Here" data-name="Place Your Design Here" transform="translate(0 0)" clip-path="url(#clip-path)">
      <g id="Group_111" data-name="Group 111" transform="translate(7.479 3.517)">
        <g id="Group_110" data-name="Group 110" transform="translate(0 0)">
          <g id="Group_13" data-name="Group 13" transform="translate(5.241 0)">
            <path id="Path_1" data-name="Path 1" d="M6.793,4.532A7.141,7.141,0,0,0,6.575,6.26c0,.671-.017,1.345-.05,2.009.01.11-.082.691-.087,1.063a1.818,1.818,0,0,0-.305-.054A12.581,12.581,0,0,0,2.5,5.026c-.271-.217-.558-.427-.852-.627C.538,2.942-.435,1.473.2.495A1.262,1.262,0,0,1,1.12.008C2.768-.153,5.741,2.163,6.793,4.532Z" transform="translate(0 0)" fill="none" stroke="#c9415e" stroke-linecap="round" stroke-linejoin="round" stroke-width="0.651"/>
            <g id="Group_12" data-name="Group 12" transform="translate(1.007 0.948)">
              <g id="Group_3" data-name="Group 3" transform="translate(0 0)">
                <g id="Group_1" data-name="Group 1">
                  <path id="Path_2" data-name="Path 2" d="M.028.007.039.028C.048.043.063.065.076.091.1.144.144.22.184.308.2.352.228.4.247.449S.294.552.311.6.361.714.379.769.42.881.446.938a1.739,1.739,0,0,0,.061.168c.023.056.038.109.06.163.039.107.075.206.1.292a.866.866,0,0,1,.038.119.756.756,0,0,1,.032.092c.013.052.02.082.02.082H.734L.668,1.772.591,1.677C.567,1.64.537,1.6.506,1.554A1.458,1.458,0,0,1,.413,1.41C.381,1.359.35,1.305.321,1.25S.262,1.137.237,1.08.185.963.164.9.126.789.109.732.081.62.067.565C.045.459.027.359.018.276A1.619,1.619,0,0,1,0,0Z" transform="translate(0 0)" fill="#f0c5ce"/>
                </g>
                <g id="Group_2" data-name="Group 2" transform="translate(2.272 0.223)">
                  <path id="Path_3" data-name="Path 3" d="M.022,0s.046.036.12.1S.326.255.449.366s.26.241.408.38c.075.07.141.142.214.217s.145.148.21.223l.187.223a2.5,2.5,0,0,1,.168.216l.14.2A1.747,1.747,0,0,1,1.888,2c.113.215.182.358.182.358l-.03-.006s-.157-.162-.328-.381a1.074,1.074,0,0,0-.075-.086c-.029-.03-.052-.061-.081-.093-.056-.063-.116-.129-.17-.2s-.125-.138-.184-.209-.126-.144-.19-.216S.884,1.025.82.954.7.812.635.744C.509.608.4.48.306.371.258.316.216.266.179.222S.109.138.083.106.037.046.021.029,0,0,0,0Z" transform="translate(0 0)" fill="#f0c5ce"/>
                </g>
              </g>
              <g id="Group_7" data-name="Group 7" transform="translate(1.737 3.386)">
                <g id="Group_4" data-name="Group 4" transform="translate(0 0)">
                  <path id="Path_4" data-name="Path 4" d="M.027,0,.085.064C.12.1.179.163.246.237.372.386.568.6.773.855c.1.128.213.267.321.414s.226.3.347.462.24.328.354.5.227.341.338.513.2.342.3.51.187.334.271.494c.036.066.069.129.1.193a12.049,12.049,0,0,0-.9-1.2.259.259,0,0,1-.018-.025c-.22-.342-.453-.682-.68-1C1.1,1.55.993,1.4.894,1.252L.609.842C.25.336,0,0,0,0A.127.127,0,0,0,.027,0Z" transform="translate(0)" fill="#f0c5ce"/>
                </g>
                <g id="Group_5" data-name="Group 5" transform="translate(2.969 0.297)">
                  <path id="Path_5" data-name="Path 5" d="M.031.006S.044.03.069.071a1.953,1.953,0,0,1,.1.185C.252.415.379.645.49.912c.059.134.117.279.17.43s.1.309.143.47c.017.072.038.146.056.22,0,.393-.012.786-.028,1.175C.807,3.05.782,2.889.754,2.727.7,2.4.633,2.063.56,1.748.524,1.589.493,1.437.446,1.289S.36,1,.318.871C.286.774.255.683.224.6.1.233,0,0,0,0Z" transform="translate(0 0)" fill="#f0c5ce"/>
                </g>
                <g id="Group_6" data-name="Group 6" transform="translate(1.915 0.491)">
                  <path id="Path_6" data-name="Path 6" d="M.027,0S.211.331.452.818l.187.392.1.213c.028.072.058.145.086.22.119.3.234.615.339.93s.2.627.273.914.142.557.2.786c.019.074.033.144.045.208h0L1.6,4.468l-.012,0c-.024-.072-.051-.15-.079-.231-.041-.118-.086-.246-.131-.381s-.1-.276-.144-.421-.1-.3-.152-.451-.112-.311-.17-.468S.806,2.2.75,2.048.642,1.742.59,1.6C.563,1.523.534,1.449.513,1.38S.458,1.239.431,1.172C.376,1.035.329.908.282.79.19.553.127.356.072.218.046.148.03.094.018.057S0,0,0,0Z" fill="#f0c5ce"/>
                </g>
              </g>
              <g id="Group_8" data-name="Group 8" transform="translate(1.916 1.145)">
                <path id="Path_7" data-name="Path 7" d="M1.488,2.429s-.033-.04-.08-.108c-.024-.034-.051-.075-.087-.123s-.076-.1-.113-.158-.083-.121-.124-.186S1,1.72.95,1.648.85,1.5.806,1.428.714,1.278.667,1.2.579,1.053.534.979.444.831.4.761C.313.619.238.488.177.375S.077.169.043.1A.766.766,0,0,1,.01.027L0,0,.018,0S.136.154.3.385C.388.5.485.634.587.778L.743,1l.141.228c.09.152.179.3.258.447s.141.273.2.386c.111.226.168.373.168.373Z" transform="translate(0 0)" fill="#f0c5ce"/>
              </g>
              <g id="Group_11" data-name="Group 11" transform="translate(1.887 2.413)">
                <g id="Group_9" data-name="Group 9" transform="translate(0 0)">
                  <path id="Path_8" data-name="Path 8" d="M.022,0s.3.427.572.855.518.853.518.853l-.021,0a3.675,3.675,0,0,1-.264-.278C.755,1.347.678,1.252.6,1.151.566,1.1.523,1.048.489,1L.382.837.285.679C.25.626.228.576.2.527A2.38,2.38,0,0,1,.076.259,1.106,1.106,0,0,1,0,0Z" transform="translate(0 0)" fill="#f0c5ce"/>
                </g>
                <g id="Group_10" data-name="Group 10" transform="translate(1.508 0.096)">
                  <path id="Path_9" data-name="Path 9" d="M.021,0A3.245,3.245,0,0,1,.312.294a3.427,3.427,0,0,1,.24.293C.589.64.632.7.667.751S.74.862.773.918l.1.167c.029.054.051.108.076.158a1.922,1.922,0,0,1,.1.277A.941.941,0,0,1,1.1,1.78l-.022,0S.835,1.334.558.888C.3.445,0,0,0,0Z" fill="#f0c5ce"/>
                </g>
              </g>
            </g>
          </g>
          <g id="Group_26" data-name="Group 26" transform="translate(0.651 2.223)">
            <path id="Path_10" data-name="Path 10" d="M6.238,2.176c.294.2.581.41.852.627A13.776,13.776,0,0,1,9.244,4.847a12.053,12.053,0,0,1,.9,1.2,9.92,9.92,0,0,1,.583,1.005,1.044,1.044,0,0,0-.138-.005c-.026,0-.048,0-.071,0h-.008a1.156,1.156,0,0,0-.7.253,17.911,17.911,0,0,0-4.98-2.54c-.294-.1-.588-.189-.877-.267A10.686,10.686,0,0,1,.242,1.2,1.353,1.353,0,0,1,.022.325C.219-.528,3.6.371,6.238,2.176Z" transform="translate(0 0)" fill="none" stroke="#c9415e" stroke-linecap="round" stroke-linejoin="round" stroke-width="0.651"/>
            <g id="Group_25" data-name="Group 25" transform="translate(0.938 0.528)">
              <g id="Group_16" data-name="Group 16" transform="translate(0 0)">
                <g id="Group_14" data-name="Group 14" transform="translate(0 0.797)">
                  <path id="Path_11" data-name="Path 11" d="M.015,0,.042.018c.015.011.04.027.07.049.06.041.144.1.238.173C.4.275.449.313.5.355S.612.438.664.484.78.574.837.622s.113.095.172.142.111.1.168.142.108.094.162.138l.285.247c.042.035.079.071.113.1s.064.056.087.079c.048.045.074.074.074.074l-.01.012L1.792,1.5l-.107-.063L1.55,1.355c-.051-.031-.1-.067-.155-.105s-.114-.078-.17-.123S1.106,1.04,1.048.992.93.9.871.847.757.747.7.7.593.6.541.548C.438.45.343.358.263.277.1.116,0,0,0,.005Z" transform="translate(0 0)" fill="#f0c5ce"/>
                </g>
                <g id="Group_15" data-name="Group 15" transform="translate(0.892)">
                  <path id="Path_12" data-name="Path 12" d="M0,0s.05.015.137.045S.354.117.5.171s.322.12.508.19C1.1.4,1.2.438,1.293.477S1.486.557,1.58.6s.188.089.28.134.184.087.265.134L2.366,1c.074.043.15.08.21.123.246.161.406.271.406.271L2.965,1.4s-.2-.083-.471-.218c-.032-.017-.068-.034-.106-.05s-.076-.035-.116-.053c-.078-.037-.162-.074-.245-.116S1.851.888,1.762.844L1.491.718C1.4.674,1.307.634,1.216.593S1.038.506.951.468C.775.391.613.311.473.245.4.213.338.181.28.153L.132.079.035.03,0,.012A.032.032,0,0,0,0,0Z" transform="translate(0 0)" fill="#f0c5ce"/>
                </g>
              </g>
              <g id="Group_20" data-name="Group 20" transform="translate(3.522 2.314)">
                <g id="Group_17" data-name="Group 17" transform="translate(0 1.126)">
                  <path id="Path_13" data-name="Path 13" d="M.014,0,.087.035c.049.024.12.056.2.1.173.092.427.218.717.38.145.081.3.169.464.265s.332.2.512.3.362.212.54.327.366.23.546.349.354.239.525.358.337.24.5.355c.063.047.126.092.184.138-.381-.237-.831-.5-1.338-.754l0,0L2.92,1.847c-.361-.235-.726-.466-1.071-.68-.176-.106-.339-.211-.492-.31L.918.579C.369.236,0,.011,0,.01A.135.135,0,0,1,.014,0Z" transform="translate(0 0)" fill="#f0c5ce"/>
                </g>
                <g id="Group_18" data-name="Group 18" transform="translate(1.502 0)">
                  <path id="Path_14" data-name="Path 14" d="M.014,0,.088.047c.047.03.119.073.205.132C.463.3.71.46.988.669c.136.1.283.217.434.341s.3.254.452.393.3.281.452.429.3.3.439.45.276.305.409.455.248.3.364.445.221.284.319.417.19.257.27.372c.069.1.132.188.187.27a.527.527,0,0,0-.075.017c-.062-.08-.134-.169-.211-.264-.367-.446-.871-1.05-1.444-1.647-.282-.3-.579-.6-.866-.875-.147-.138-.286-.275-.429-.4S1.011.83.882.721C.629.506.406.328.249.2S0,.011,0,.011Z" transform="translate(0 0)" fill="#f0c5ce"/>
                </g>
                <g id="Group_19" data-name="Group 19" transform="translate(1.252 0.734)">
                  <path id="Path_15" data-name="Path 15" d="M.016,0S.362.24.856.606c.123.092.258.191.4.3.07.053.143.108.214.164l.211.175c.287.238.583.5.872.754s.563.519.811.765.474.477.664.674c.07.073.135.141.192.2-.018.012-.037.024-.053.037-.073-.065-.15-.136-.233-.212-.106-.095-.221-.2-.34-.307s-.248-.224-.376-.343-.271-.242-.409-.369-.283-.252-.427-.378-.286-.255-.43-.38-.282-.251-.422-.371c-.068-.061-.137-.119-.2-.178s-.135-.113-.2-.168C1,.863.872.759.76.663.531.472.346.306.211.192.14.137.09.089.055.058L0,.01Z" transform="translate(0 0)" fill="#f0c5ce"/>
                </g>
              </g>
              <g id="Group_21" data-name="Group 21" transform="translate(1.72 1.114)">
                <path id="Path_16" data-name="Path 16" d="M2.7,1.761s-.046-.025-.123-.07c-.039-.023-.084-.051-.139-.083s-.116-.065-.18-.1-.134-.081-.206-.128-.148-.094-.228-.143-.163-.1-.245-.154L1.33.917,1.083.751C1,.7.918.645.838.594.681.492.535.393.41.307S.185.144.111.092C.075.068.047.045.028.031L0,.009A.026.026,0,0,0,.007,0S.192.1.462.258C.6.335.755.426.922.524l.255.152c.086.054.17.109.256.163.169.111.335.222.49.328s.289.208.407.294c.236.173.383.294.382.294Z" transform="translate(0 0)" fill="#f0c5ce"/>
              </g>
              <g id="Group_24" data-name="Group 24" transform="translate(2.828 1.794)">
                <g id="Group_22" data-name="Group 22" transform="translate(0 0.612)">
                  <path id="Path_17" data-name="Path 17" d="M.01,0S.486.3.947.6s.9.613.9.614l-.013.007s-.145-.056-.336-.155c-.1-.049-.207-.109-.319-.175-.056-.033-.116-.067-.173-.1L.836.674.669.56C.613.522.563.483.511.445.411.371.317.3.243.233A2.928,2.928,0,0,1,0,.008Z" transform="translate(0 0)" fill="#f0c5ce"/>
                </g>
                <g id="Group_23" data-name="Group 23" transform="translate(0.663 0)">
                  <path id="Path_18" data-name="Path 18" d="M.01,0S.166.052.378.152C.483.2.6.261.728.328.789.364.855.4.917.435L1.105.55c.061.041.122.081.182.121s.114.082.167.121c.107.079.2.157.28.225a2.294,2.294,0,0,1,.241.239l-.012.007S1.493.941,1,.63,0,.008,0,.009A.04.04,0,0,1,.01,0Z" transform="translate(0)" fill="#f0c5ce"/>
                </g>
              </g>
            </g>
          </g>
          <g id="Group_39" data-name="Group 39" transform="translate(0 6.28)">
            <path id="Path_19" data-name="Path 19" d="M8.045,1.768l0,0c.506.258.957.518,1.338.754.467.289.829.543,1.073.723a.89.89,0,0,0-.116.117.879.879,0,0,0-.106.163.344.344,0,0,0-.024.052.914.914,0,0,0-.072.258.564.564,0,0,0-.007.057c0,.025,0,.051,0,.077-.265-.058-.7-.145-1.24-.233-.391-.062-.837-.124-1.321-.176a21.6,21.6,0,0,0-2.319-.127c-.248,0-.495,0-.736.011a9.783,9.783,0,0,1-3.991-2,1.952,1.952,0,0,1-.5-.724C-.23-.084,1.985-.268,4.6.44c.289.078.583.167.877.267A17.328,17.328,0,0,1,8.045,1.768Z" transform="translate(0 0)" fill="none" stroke="#c9415e" stroke-linecap="round" stroke-linejoin="round" stroke-width="0.651"/>
            <g id="Group_38" data-name="Group 38" transform="translate(1.018 0.388)">
              <g id="Group_29" data-name="Group 29" transform="translate(0 0)">
                <g id="Group_27" data-name="Group 27" transform="translate(0 0.976)">
                  <path id="Path_20" data-name="Path 20" d="M.008,0,.031.009C.046.015.069.022.1.034.153.055.232.085.324.124c.047.02.1.039.148.062S.579.232.635.259.749.308.807.336.923.391.984.417,1.1.473,1.159.5s.113.055.169.081c.112.053.215.1.3.146.044.02.085.044.122.062s.07.034.1.048c.053.027.084.046.085.046a.048.048,0,0,0,0,.013L1.842.871l-.1-.027L1.61.8C1.563.79,1.512.771,1.458.752S1.348.711,1.29.687,1.172.64,1.113.612.991.559.931.53.811.47.753.44.637.379.582.35C.472.289.371.232.285.181.111.081,0,.008,0,.008S.005,0,.008,0Z" transform="translate(0 0)" fill="#f0c5ce"/>
                </g>
                <g id="Group_28" data-name="Group 28" transform="translate(0.156 0)">
                  <path id="Path_21" data-name="Path 21" d="M0,0H.1C.169,0,.263,0,.376.006S.624.017.768.024c.073,0,.148.012.225.018s.154.012.233.022L1.461.1c.077.012.154.022.228.038L1.9.179c.068.016.133.025.191.044.236.069.393.117.393.117a.089.089,0,0,0,0,.015,3.778,3.778,0,0,1-.4-.044C2.057.305,2.027.3,2,.3S1.932.292,1.9.289C1.832.281,1.762.274,1.691.261S1.545.245,1.469.234L1.242.2C1.166.192,1.091.185,1.015.175S.865.151.794.143C.65.126.515.1.4.085.34.076.288.066.239.058S.151.042.115.035L.034.019.005.013A.039.039,0,0,0,0,0Z" transform="translate(0 0)" fill="#f0c5ce"/>
                </g>
              </g>
              <g id="Group_33" data-name="Group 33" transform="translate(3.571 0.8)">
                <g id="Group_30" data-name="Group 30" transform="translate(0 1.596)">
                  <path id="Path_22" data-name="Path 22" d="M4.3.953C3.909.892,3.463.829,2.979.777l-.015,0L1.868.512c-.175-.041-.344-.085-.5-.128L.919.264C.365.116,0,.015,0,.015A.073.073,0,0,0,.006,0S.031.005.074.012s.11.017.191.034c.166.032.4.07.684.129.139.029.291.06.452.1s.33.073.507.108.36.075.544.119l.559.128.556.139L4.1.9C4.171.918,4.237.936,4.3.953Z" transform="translate(0 0)" fill="#f0c5ce"/>
                </g>
                <g id="Group_31" data-name="Group 31" transform="translate(0.301 0)">
                  <path id="Path_23" data-name="Path 23" d="M3.066,1.1c.182.089.364.176.541.263s.344.182.51.269.32.175.467.257.284.162.407.234.241.14.338.2l.018.01c-.009.017-.017.034-.024.052L4.947,2.2C4.43,1.943,3.731,1.585,3,1.25,2.641,1.08,2.274.914,1.926.76,1.752.685,1.581.609,1.42.546L.961.366C.388.147,0,.016,0,.015S0,0,0,0l.07.016c.047.011.114.026.2.05.172.05.417.113.71.208.146.046.3.1.471.157s.338.124.516.2.361.146.544.228S2.883,1.019,3.066,1.1Z" transform="translate(0 0)" fill="#f0c5ce"/>
                </g>
                <g id="Group_32" data-name="Group 32" transform="translate(0.597 0.801)">
                  <path id="Path_24" data-name="Path 24" d="M4.956,1.847s0,.011,0,.016,0,.027,0,.041h0c-.11-.036-.235-.075-.376-.124s-.265-.089-.408-.14-.3-.106-.454-.166-.321-.117-.485-.182-.334-.125-.5-.188l-.5-.2c-.167-.064-.331-.133-.487-.2L1.493.617C1.417.588,1.343.558,1.268.53,1.122.475.983.419.856.369.6.269.387.176.237.116.161.087.1.059.063.042L0,.015C0,.01,0,.005,0,0s.354.108.88.277c.132.042.275.089.425.138l.232.077.236.086C2.1.7,2.442.828,2.782.958s.676.268.986.4l.844.349Z" transform="translate(0 0)" fill="#f0c5ce"/>
                </g>
              </g>
              <g id="Group_34" data-name="Group 34" transform="translate(1.223 0.779)">
                <path id="Path_25" data-name="Path 25" d="M2.618.787S2.576.78,2.5.763c-.036-.009-.08-.02-.132-.031S2.26.708,2.2.692,2.068.66,2,.64L1.777.58C1.7.558,1.619.539,1.54.515L1.3.443,1.054.366C.974.345.9.318.82.3.668.25.527.2.406.161S.182.079.112.054C.076.042.048.029.029.021L0,.01A.071.071,0,0,0,0,0L.412.1.834.2l.238.061.245.071c.166.05.33.1.483.149s.3.1.418.142c.244.084.4.149.4.149A.03.03,0,0,1,2.618.787Z" transform="translate(0 0)" fill="#f0c5ce"/>
              </g>
              <g id="Group_37" data-name="Group 37" transform="translate(2.58 0.85)">
                <g id="Group_35" data-name="Group 35" transform="translate(0 0.79)">
                  <path id="Path_26" data-name="Path 26" d="M0,0S.462.131.924.266s.92.283.921.284,0,.008,0,.011A2.342,2.342,0,0,1,1.536.527c-.09-.014-.194-.035-.3-.061C1.178.452,1.121.441,1.065.424L.893.375.723.32C.667.3.612.281.56.262.454.224.356.184.274.146A2.713,2.713,0,0,1,0,.01.061.061,0,0,0,0,0Z" transform="translate(0 0)" fill="#f0c5ce"/>
                </g>
                <g id="Group_36" data-name="Group 36" transform="translate(0.083 0)">
                  <path id="Path_27" data-name="Path 27" d="M0,0A2.411,2.411,0,0,1,.307.019C.4.028.5.043.618.065.676.077.734.085.793.1l.18.042.18.051c.06.015.116.035.172.054.111.037.217.076.3.114A2.536,2.536,0,0,1,1.918.5s0,.009,0,.013S1.438.38.957.258,0,.011,0,.012A.087.087,0,0,1,0,0Z" transform="translate(0 0)" fill="#f0c5ce"/>
                </g>
              </g>
            </g>
          </g>
          <g id="Group_52" data-name="Group 52" transform="translate(1.005 9.716)">
            <path id="Path_28" data-name="Path 28" d="M9.132.538A1.457,1.457,0,0,0,9.2,1.01a1.962,1.962,0,0,0,.157.359c-.5.176-2.212.776-3.943,1.4l-.567.21a9.174,9.174,0,0,1-4.114-1.2,2.437,2.437,0,0,1-.671-.555C-.357.6,1.321.09,3.514.011,3.756,0,4,0,4.25,0A24.144,24.144,0,0,1,9.132.538Z" transform="translate(0 0)" fill="none" stroke="#c9415e" stroke-linecap="round" stroke-linejoin="round" stroke-width="0.651"/>
            <g id="Group_51" data-name="Group 51" transform="translate(0.895 0.516)">
              <g id="Group_42" data-name="Group 42" transform="translate(0 0)">
                <g id="Group_40" data-name="Group 40" transform="translate(0.232 1.118)">
                  <path id="Path_29" data-name="Path 29" d="M0,0,.027,0C.041.007.063.01.089.016c.056.01.133.027.224.047L.46.1C.512.109.567.121.622.136L.8.179C.853.2.912.211.972.225s.118.033.176.046S1.263.3,1.32.317L1.626.4c.044.011.087.024.125.036s.071.019.1.027c.056.017.088.029.088.029a.09.09,0,0,0,0,.014L1.859.5,1.765.493,1.643.479C1.6.474,1.548.466,1.5.457S1.391.439,1.332.425,1.217.4,1.157.386,1.035.356.974.339.851.3.791.285.672.246.615.228C.5.19.394.154.3.12.12.056,0,.008,0,.008A.041.041,0,0,1,0,0Z" transform="translate(0 0)" fill="#f0c5ce"/>
                </g>
                <g id="Group_41" data-name="Group 41">
                  <path id="Path_30" data-name="Path 30" d="M0,.235.082.217C.133.2.209.189.3.17S.5.132.613.109C.671.1.733.09.794.08S.919.058.982.05L1.176.03C1.24.023,1.3.015,1.366.014L1.546,0C1.6,0,1.657,0,1.711,0l.346.013c0,.005,0,.01,0,.014a2.2,2.2,0,0,1-.318.055A.682.682,0,0,0,1.669.1C1.643.1,1.617.1,1.59.107c-.055.008-.11.018-.17.022S1.3.147,1.24.153L1.052.174C.988.179.926.188.864.195S.738.2.679.211C.56.224.445.229.347.236.3.24.252.24.211.242L.1.245h-.1Z" transform="translate(0 0)" fill="#f0c5ce"/>
                </g>
              </g>
              <g id="Group_46" data-name="Group 46" transform="translate(3.179 0.089)">
                <g id="Group_43" data-name="Group 43" transform="translate(0.532 1.148)">
                  <path id="Path_31" data-name="Path 31" d="M3.663,0C3.355.108,3.005.231,2.63.365l-.014,0C2.3.42,1.974.465,1.67.5c-.152.018-.3.026-.442.031S.954.54.83.543C.336.556,0,.546,0,.547A.1.1,0,0,1,0,.531L.058.524C.1.521.152.513.224.507.364.495.567.47.809.445.931.432,1.061.417,1.2.4s.284-.032.434-.054S1.939.3,2.1.278,2.415.229,2.574.2s.318-.053.475-.08S3.357.061,3.5.032C3.558.02,3.611.009,3.663,0Z" transform="translate(0 0)" fill="#f0c5ce"/>
                </g>
                <g id="Group_44" data-name="Group 44" transform="translate(0 0)">
                  <path id="Path_32" data-name="Path 32" d="M5.1.309c0,.018.009.037.014.056-.127,0-.288,0-.472-.008C4.148.348,3.469.3,2.778.252L1.763.166C1.6.154,1.441.135,1.293.128L.872.1C.352.068,0,.049,0,.049A.036.036,0,0,0,0,.033l.059,0C.1.026.155.021.23.019.377.016.586,0,.845,0,.97,0,1.11,0,1.257,0s.3.007.467.016.328.015.5.028.342.024.516.035.348.03.517.043.338.036.5.05.315.032.463.046l.411.041L4.974.3C5.019.3,5.061.306,5.1.309Z" transform="translate(0 0)" fill="#f0c5ce"/>
                </g>
                <g id="Group_45" data-name="Group 45" transform="translate(0.609 0.648)">
                  <path id="Path_33" data-name="Path 33" d="M4.618,0c.008.015.015.032.024.048C4.526.071,4.379.1,4.21.128c-.11.017-.232.035-.361.049s-.264.031-.406.04S3.153.239,3,.241s-.3.012-.459.016-.311,0-.464,0S1.773.241,1.623.235C1.55.23,1.478.227,1.406.221L1.2.211C1.062.205.933.2.813.185.574.168.37.14.23.126.158.119.1.109.064.1L0,.1A.087.087,0,0,1,0,.079S.315.085.786.087l.38,0c.067,0,.137,0,.206,0l.219,0c.3,0,.607.006.919,0s.618-.01.906-.015S3.97.049,4.194.034C4.361.023,4.5.01,4.618,0Z" transform="translate(0 0)" fill="#f0c5ce"/>
                </g>
              </g>
              <g id="Group_47" data-name="Group 47" transform="translate(1.148 0.732)">
                <path id="Path_34" data-name="Path 34" d="M2.375.143s-.035,0-.1.008L2.161.156c-.045,0-.1.006-.15.006s-.113,0-.176,0l-.2,0c-.069,0-.139,0-.212-.006L1.206.142.984.124C.912.121.84.114.771.109.631.1.5.084.386.069S.177.038.11.028C.077.024.049.017.031.014L0,.009,0,0,.366.011.742.02l.212,0,.221.013.438.026c.14.006.271.022.384.031.224.017.376.036.376.037A.1.1,0,0,1,2.375.143Z" transform="translate(0 0)" fill="#f0c5ce"/>
              </g>
              <g id="Group_50" data-name="Group 50" transform="translate(2.3 0.372)">
                <g id="Group_48" data-name="Group 48" transform="translate(0.289 0.889)">
                  <path id="Path_35" data-name="Path 35" d="M0,0S.419.024.837.037s.838.028.838.028a.1.1,0,0,1,0,.012A1.382,1.382,0,0,1,1.43.131a2.319,2.319,0,0,1-.261.023c-.049,0-.1,0-.149,0l-.157,0L.707.142C.656.139.6.131.554.126.455.113.36.1.279.081A2.434,2.434,0,0,1,0,.011.074.074,0,0,1,0,0Z" transform="translate(0 0)" fill="#f0c5ce"/>
                </g>
                <g id="Group_49" data-name="Group 49" transform="translate(0 0)">
                  <path id="Path_36" data-name="Path 36" d="M0,.115A1.819,1.819,0,0,1,.24.057C.313.043.4.031.495.022.543.018.591.011.643.01L.8,0H.953c.052,0,.1,0,.154,0,.1,0,.2.011.278.022a2.3,2.3,0,0,1,.281.05.038.038,0,0,1,0,.013S1.255.105.839.117,0,.127,0,.126A.038.038,0,0,1,0,.115Z" transform="translate(0 0)" fill="#f0c5ce"/>
                </g>
              </g>
            </g>
          </g>
          <g id="Group_65" data-name="Group 65" transform="translate(3.326 11.082)">
            <path id="Path_37" data-name="Path 37" d="M7.034,0c.026.047.056.093.084.137.01.012.018.024.026.035a2.312,2.312,0,0,0,.487.51A18.934,18.934,0,0,1,5.249,3.971c-.134.152-.267.3-.4.451a4.769,4.769,0,0,1-3.9-.332,3.335,3.335,0,0,1-.786-.56c-.625-.673.653-1.281,2.362-1.922.186-.069.374-.14.567-.209L4.909.749C5.285.616,5.633.492,5.941.384,6.446.207,6.835.071,7.034,0Z" transform="translate(0 0)" fill="none" stroke="#c9415e" stroke-linecap="round" stroke-linejoin="round" stroke-width="0.651"/>
            <g id="Group_64" data-name="Group 64" transform="translate(0.679 0.343)">
              <g id="Group_55" data-name="Group 55" transform="translate(0 1.945)">
                <g id="Group_53" data-name="Group 53" transform="translate(0.549 1.577)">
                  <path id="Path_38" data-name="Path 38" d="M0,0h.02L.079,0C.13.007.2.013.287.021c.041,0,.088.006.136.012S.52.04.574.047.679.056.734.063.846.074.9.077s.113.012.166.015.11.011.161.013l.288.022c.041,0,.081.007.117.009s.066,0,.092.007c.053,0,.084.009.084.009l.008.014L1.747.183,1.666.2,1.557.214Q1.5.222,1.427.225c-.046,0-.1,0-.149,0s-.107,0-.162,0S1,.215.945.209.829.193.77.185.656.164.6.155C.491.133.388.111.3.089.121.047,0,.01,0,.01A.051.051,0,0,0,0,0Z" transform="translate(0 0)" fill="#f0c5ce"/>
                </g>
                <g id="Group_54" data-name="Group 54" transform="translate(0 0)">
                  <path id="Path_39" data-name="Path 39" d="M0,.622.061.591C.1.57.157.542.225.508S.377.436.464.392C.507.37.555.351.6.329S.7.284.748.264L.9.205A1.574,1.574,0,0,1,1.049.15c.05-.016.1-.031.143-.047A1.255,1.255,0,0,1,1.326.065L1.613,0l.009.014a1.19,1.19,0,0,1-.236.131.339.339,0,0,0-.055.028c-.018.011-.038.019-.058.03a1.392,1.392,0,0,1-.131.059C1.094.278,1.053.3,1,.323S.905.364.857.383.758.421.709.44.607.472.562.49C.468.524.373.549.293.571.253.583.214.592.18.6S.117.613.092.618L.033.629l-.022,0Z" transform="translate(0 0)" fill="#f0c5ce"/>
                </g>
              </g>
              <g id="Group_59" data-name="Group 59" transform="translate(2.564 0)">
                <g id="Group_56" data-name="Group 56" transform="translate(1.138 0.441)">
                  <path id="Path_40" data-name="Path 40" d="M2.541.111c.035-.037.069-.074.1-.111-.17.255-.37.543-.6.847,0,0,0,0,0,0a.141.141,0,0,0-.013.012,6.919,6.919,0,0,1-.689.536A3.081,3.081,0,0,1,1,1.609c-.113.061-.219.117-.318.168a6.888,6.888,0,0,1-.679.3A.114.114,0,0,0,0,2.057s.017-.01.045-.029.072-.044.129-.074c.112-.061.266-.162.452-.278.094-.058.193-.123.3-.191s.214-.144.323-.229.221-.175.335-.265.225-.186.334-.284.221-.195.325-.3S2.447.212,2.541.111Z" transform="translate(0 0.891)" fill="#f0c5ce"/>
                  <path id="Path_41" data-name="Path 41" d="M0,0,.033.021,0,0Z" transform="translate(3.391 0)" fill="#f0c5ce"/>
                </g>
                <g id="Group_57" data-name="Group 57" transform="translate(0)">
                  <path id="Path_42" data-name="Path 42" d="M4.034,0c-.05.028-.11.06-.178.1S3.69.179,3.6.229s-.2.1-.313.153-.233.107-.355.164-.257.109-.389.166-.265.116-.4.171-.269.113-.4.164-.265.107-.395.155-.25.1-.364.146-.223.094-.321.135c-.2.083-.36.16-.475.207-.058.022-.1.046-.129.059S0,1.77,0,1.77l.011.014S.3,1.709.722,1.577c.1-.033.219-.07.339-.11s.249-.081.381-.125c.263-.088.541-.189.811-.3A8.916,8.916,0,0,0,3.662.318c.174-.11.312-.21.4-.279Z" transform="translate(0 0)" fill="#f0c5ce"/>
                </g>
                <g id="Group_58" data-name="Group 58" transform="translate(0.796 0.265)">
                  <path id="Path_43" data-name="Path 43" d="M3.5,0c-.08.079-.191.184-.333.3s-.334.271-.54.413-.434.285-.666.42-.473.261-.7.372c-.057.027-.113.054-.169.078s-.109.055-.16.08c-.1.05-.2.1-.3.139C.258,1.971,0,2.061,0,2.062a.073.073,0,0,1,.012.015l.05-.009c.034-.008.084-.015.143-.031C.326,2.006.5,1.968.7,1.9c.1-.032.206-.068.315-.113l.168-.067c.06-.022.116-.047.177-.071.119-.051.241-.1.361-.163s.24-.124.357-.192.229-.142.339-.216.214-.152.311-.229A3.525,3.525,0,0,0,3,.617c.086-.077.162-.154.23-.227.133-.14.233-.269.3-.359Z" transform="translate(0 0)" fill="#f0c5ce"/>
                </g>
              </g>
              <g id="Group_60" data-name="Group 60" transform="translate(1.166 2.459)">
                <path id="Path_44" data-name="Path 44" d="M2.007.012S1.98.028,1.93.051C1.9.062,1.874.075,1.839.092a1.094,1.094,0,0,1-.117.051c-.044.017-.091.036-.143.051L1.417.247C1.36.263,1.3.283,1.241.3L1.056.342.865.377C.8.392.742.4.683.413.564.433.45.447.349.455S.162.465.1.469c-.028,0-.054,0-.07,0H.006A.052.052,0,0,1,0,.459S.124.436.308.4C.4.375.509.349.624.321L.8.275C.861.262.925.248.986.233c.126-.027.252-.057.368-.086S1.586.1,1.68.073C1.871.027,2,0,2,0A.062.062,0,0,1,2.007.012Z" transform="translate(0 0)" fill="#f0c5ce"/>
              </g>
              <g id="Group_63" data-name="Group 63" transform="translate(2.015 1.879)">
                <g id="Group_61" data-name="Group 61" transform="translate(0.557 0.838)">
                  <path id="Path_45" data-name="Path 45" d="M0,.452S.356.364.7.247,1.4,0,1.4,0L1.4.013a1.1,1.1,0,0,1-.177.143,1.594,1.594,0,0,1-.2.112C.983.286.945.306.9.321L.772.365.64.4C.6.415.55.422.507.431A1.944,1.944,0,0,1,.262.462a1.7,1.7,0,0,1-.254,0Z" transform="translate(0 0)" fill="#f0c5ce"/>
                </g>
                <g id="Group_62" data-name="Group 62" transform="translate(0 0)">
                  <path id="Path_46" data-name="Path 46" d="M0,.515A1.1,1.1,0,0,1,.171.392,1.818,1.818,0,0,1,.362.287C.4.27.435.249.476.233L.6.182.72.136C.761.119.805.108.845.095a2.323,2.323,0,0,1,.231-.06A1.586,1.586,0,0,1,1.321,0l.009.012s-.32.151-.65.281S.008.526.008.526Z" transform="translate(0 0)" fill="#f0c5ce"/>
                </g>
              </g>
            </g>
          </g>
          <g id="Group_78" data-name="Group 78" transform="translate(6.411 11.764)">
            <path id="Path_47" data-name="Path 47" d="M5.322.382a11.211,11.211,0,0,1-.226,4.6c-.053.224-.114.446-.179.666a4.33,4.33,0,0,1-3.86,1.572,1.957,1.957,0,0,1-.843-.366C-.46,6.207.567,5.069,1.763,3.739c.134-.147.267-.3.4-.451A18.29,18.29,0,0,0,3.343,1.843s0,0,0,0c.225-.3.425-.592.6-.847C4.259.51,4.47.144,4.545,0c.045.036.094.07.141.1l.033.02A2.069,2.069,0,0,0,5.076.3,1.727,1.727,0,0,0,5.322.382Z" transform="translate(0 0)" fill="none" stroke="#c9415e" stroke-linecap="round" stroke-linejoin="round" stroke-width="0.651"/>
            <g id="Group_77" data-name="Group 77" transform="translate(0.567 0.223)">
              <g id="Group_68" data-name="Group 68" transform="translate(0 4.36)">
                <g id="Group_66" data-name="Group 66" transform="translate(0.717 1.601)">
                  <path id="Path_48" data-name="Path 48" d="M0,.65.02.643.076.621l.2-.07L.41.506C.456.491.5.472.557.456L.714.4C.767.384.823.366.877.344S.986.307,1.038.286s.106-.039.156-.061c.1-.04.2-.077.281-.111C1.515.1,1.555.082,1.591.068S1.654.041,1.68.031C1.731.011,1.763,0,1.763,0a.075.075,0,0,0,.012.012l-.062.05L1.641.12l-.1.067a1.366,1.366,0,0,1-.123.074c-.045.026-.091.052-.142.075s-.1.049-.157.071S1.01.451.953.472.836.508.78.524.664.553.609.568C.5.592.393.613.3.626.125.654,0,.662,0,.663A.026.026,0,0,1,0,.65Z" transform="translate(0 0)" fill="#f0c5ce"/>
                </g>
                <g id="Group_67" data-name="Group 67" transform="translate(0 0)">
                  <path id="Path_49" data-name="Path 49" d="M0,1.321s.016-.022.046-.06L.175,1.1C.226,1.037.293.962.358.88.39.838.428.8.464.755S.535.668.573.625.653.544.69.5.765.419.806.384L.919.276a1.237,1.237,0,0,1,.1-.094C1.16.074,1.252,0,1.252,0l.012.012A1.3,1.3,0,0,1,1.1.251.409.409,0,0,0,1.063.3c-.013.02-.028.038-.043.057C.99.4.959.44.922.478S.856.562.818.6.744.685.705.725.628.808.59.847.508.922.472.961C.4,1.036.317,1.1.251,1.155c-.033.028-.066.052-.1.073l-.075.055C.06,1.3.041,1.309.03,1.317l-.018.012Z" transform="translate(0)" fill="#f0c5ce"/>
                </g>
              </g>
              <g id="Group_72" data-name="Group 72" transform="translate(2.009 0)">
                <g id="Group_69" data-name="Group 69" transform="translate(1.628 0.195)">
                  <path id="Path_50" data-name="Path 50" d="M1.235.155C1.24.1,1.246.05,1.253,0a11.485,11.485,0,0,1-.022,1.167.057.057,0,0,1,0,.011,6.053,6.053,0,0,1-.316.908,3.251,3.251,0,0,1-.2.4c-.069.121-.14.235-.208.338a6.917,6.917,0,0,1-.491.658A.119.119,0,0,1,0,3.464s.012-.017.032-.05.048-.084.085-.145c.079-.121.177-.3.292-.519.06-.109.119-.226.181-.352s.121-.26.174-.4S.87,1.7.921,1.551s.095-.308.134-.465.078-.313.109-.468S1.218.307,1.235.155Z" transform="translate(0 1.326)" fill="#f0c5ce"/>
                  <path id="Path_51" data-name="Path 51" d="M.02,0V0A.067.067,0,0,0,0,0Z" transform="translate(1.299 0)" fill="#f0c5ce"/>
                </g>
                <g id="Group_70" data-name="Group 70" transform="translate(0)">
                  <path id="Path_52" data-name="Path 52" d="M2.361.019a5.483,5.483,0,0,1-.136.549,5.956,5.956,0,0,1-.684,1.439A8.313,8.313,0,0,1,1.03,2.7c-.089.107-.181.2-.259.3s-.162.186-.238.266c-.187.2-.342.359-.432.445L.017,3.8A.136.136,0,0,1,0,3.785l.032-.042c.019-.027.048-.068.088-.119C.2,3.525.3,3.375.436,3.2l.208-.286c.074-.1.154-.207.237-.316s.162-.225.245-.341.163-.237.241-.36.157-.243.229-.366.147-.242.209-.361.124-.233.178-.344.1-.217.142-.315S2.2.325,2.236.244s.056-.15.074-.209c0-.012.007-.025.011-.035Z" transform="translate(0)" fill="#f0c5ce"/>
                </g>
                <g id="Group_71" data-name="Group 71" transform="translate(0.906 0.133)">
                  <path id="Path_53" data-name="Path 53" d="M1.782.011a.12.12,0,0,0,0,.023c0,.13.01.319-.007.54-.008.109-.02.227-.04.35a3.749,3.749,0,0,1-.077.381c-.035.129-.071.263-.12.394s-.1.264-.156.4-.123.254-.19.378a4.049,4.049,0,0,1-.22.349c-.038.055-.072.11-.114.161L.75,3.135c-.073.1-.146.188-.219.27a5.183,5.183,0,0,1-.363.377c-.045.045-.086.077-.111.1l-.041.034A.086.086,0,0,1,0,3.9s.187-.216.433-.568c.061-.087.126-.183.19-.288.031-.052.065-.105.1-.16s.07-.109.106-.166a6.3,6.3,0,0,0,.387-.732,7.6,7.6,0,0,0,.3-.769,6.026,6.026,0,0,0,.17-.7A5.091,5.091,0,0,0,1.744,0Z" transform="translate(0 0)" fill="#f0c5ce"/>
                </g>
              </g>
              <g id="Group_73" data-name="Group 73" transform="translate(1.15 4.269)">
                <path id="Path_54" data-name="Path 54" d="M1.658.01s-.017.029-.052.078c-.018.023-.041.052-.064.085a1.22,1.22,0,0,1-.086.109c-.033.038-.069.08-.11.12s-.082.085-.126.13S1.13.624,1.08.668.979.755.926.8.82.882.766.922.662,1,.611,1.04a3.383,3.383,0,0,1-.292.191C.23,1.284.15,1.321.1,1.35c-.027.015-.05.023-.065.03l-.024.01L0,1.382s.107-.078.264-.2c.079-.062.169-.136.265-.217C.576.923.625.879.674.836S.776.752.828.708c.105-.086.208-.173.3-.257s.187-.159.262-.226C1.544.089,1.647,0,1.646,0A.035.035,0,0,1,1.658.01Z" transform="translate(0 0)" fill="#f0c5ce"/>
              </g>
              <g id="Group_76" data-name="Group 76" transform="translate(1.757 3.57)">
                <g id="Group_74" data-name="Group 74" transform="translate(0.761 0.584)">
                  <path id="Path_55" data-name="Path 55" d="M0,1.155A7.8,7.8,0,0,0,.567.6,7.182,7.182,0,0,0,1.086,0L1.1.009A1.078,1.078,0,0,1,1,.246,1.592,1.592,0,0,1,.863.465C.836.5.807.543.774.579S.709.654.675.691L.568.8C.534.83.493.86.458.89a1.889,1.889,0,0,1-.213.152,1.474,1.474,0,0,1-.235.121A.088.088,0,0,0,0,1.155Z" transform="translate(0 0)" fill="#f0c5ce"/>
                </g>
                <g id="Group_75" data-name="Group 75" transform="translate(0 0)">
                  <path id="Path_56" data-name="Path 56" d="M0,1.134A1.448,1.448,0,0,1,.109.926a2.164,2.164,0,0,1,.129-.2C.265.694.289.656.318.621S.376.55.4.514.464.444.494.41.556.344.586.312A2.351,2.351,0,0,1,.76.146,1.478,1.478,0,0,1,.956,0L.969.008S.759.313.52.6.01,1.143.01,1.143Z" transform="translate(0 0)" fill="#f0c5ce"/>
                </g>
              </g>
            </g>
          </g>
          <g id="Group_84" data-name="Group 84" transform="translate(10.387 12.062)">
            <path id="Path_57" data-name="Path 57" d="M2.154,0A14.9,14.9,0,0,1,4.7,4.288c.085.228.164.454.239.678A5.4,5.4,0,0,1,1.632,8.88a3,3,0,0,1-1.16.256C-.573,9.011.36,7.266.942,5.28c.065-.22.126-.442.179-.666A11.022,11.022,0,0,0,1.46,2.54a11.51,11.51,0,0,0,.022-1.167A9.294,9.294,0,0,0,1.347.011a1.8,1.8,0,0,0,.181.036.073.073,0,0,1,.02,0l.065.007A1.3,1.3,0,0,0,2.154,0Z" transform="translate(0 0.073)" fill="none" stroke="#ad8089" stroke-linecap="round" stroke-linejoin="round" stroke-width="0.651"/>
            <g id="Group_83" data-name="Group 83" transform="translate(1.737 0)">
              <g id="Group_82" data-name="Group 82" transform="translate(0)">
                <g id="Group_79" data-name="Group 79" transform="translate(0.558)">
                  <path id="Path_58" data-name="Path 58" d="M.088.168C.058.111.029.055,0,0,.219.319.458.688.69,1.094L.7,1.109A5.917,5.917,0,0,1,.971,2.125a3.2,3.2,0,0,1,.058.477c.01.153.01.3.009.431a5.641,5.641,0,0,1-.085.89H.932s0-.023,0-.064,0-.1,0-.18c0-.154-.006-.376-.023-.639C.9,2.907.887,2.765.871,2.614s-.043-.308-.079-.47-.08-.329-.125-.5S.564,1.308.5,1.141.381.8.311.642.166.319.088.168Z" transform="translate(0.764 1.25)" fill="#f0c5ce"/>
                  <path id="Path_59" data-name="Path 59" d="M.029,0h0L0,.015C.01.01.019.006.029,0Z" transform="translate(0)" fill="#f0c5ce"/>
                </g>
                <g id="Group_80" data-name="Group 80" transform="translate(0 0.136)">
                  <path id="Path_60" data-name="Path 60" d="M.04,0A6.508,6.508,0,0,1,.272.616,6.169,6.169,0,0,1,.56,2.406,6.86,6.86,0,0,1,.5,3.372c-.023.153-.052.3-.074.442s-.054.272-.082.4a7.611,7.611,0,0,1-.233.806H.087L.1,4.956c.006-.039.012-.1.028-.166C.153,4.648.18,4.444.218,4.2.234,4.077.25,3.944.266,3.8S.3,3.515.315,3.362.339,3.051.35,2.89.363,2.566.361,2.4s0-.326-.014-.486S.328,1.6.309,1.446s-.039-.3-.063-.438S.195.739.167.62.113.392.088.3.038.117.015.048C.011.032,0,.016,0,0Z" transform="translate(0 0)" fill="#f0c5ce"/>
                </g>
                <g id="Group_81" data-name="Group 81" transform="translate(0.321 0.09)">
                  <path id="Path_61" data-name="Path 61" d="M.039,0s0,0,0,0C.122.126.245.3.366.523c.061.11.123.23.183.359s.118.266.17.408.1.293.14.445.078.309.107.466.045.315.058.471a4.041,4.041,0,0,1,.011.46c0,.075,0,.147-.009.22s-.007.142-.012.209C1,3.7.986,3.827.966,3.946a5.278,5.278,0,0,1-.134.574c-.018.069-.04.124-.051.16a.588.588,0,0,0-.023.058H.738a6.258,6.258,0,0,0,.105-.79C.85,3.827.856,3.7.857,3.563c0-.068,0-.138,0-.209s0-.144,0-.218a6.144,6.144,0,0,0-.086-.924A7.27,7.27,0,0,0,.557,1.3,6.75,6.75,0,0,0,.266.533C.166.313.07.135,0,.01Z" transform="translate(0 0)" fill="#f0c5ce"/>
                </g>
              </g>
            </g>
          </g>
          <g id="Group_89" data-name="Group 89" transform="translate(12.541 11.681)">
            <path id="Path_62" data-name="Path 62" d="M6.055,2.083a4.09,4.09,0,0,1,.117,5.062,4.362,4.362,0,0,1-1.1,1.1c-1.4.815-1.625-.859-2.289-2.829-.075-.224-.154-.45-.239-.678a13.1,13.1,0,0,0-.953-2.017c-.232-.405-.471-.775-.69-1.094A14.063,14.063,0,0,0,0,.454,1.24,1.24,0,0,0,.141.4L.17.381A1.02,1.02,0,0,0,.575,0C1.2.212,3.191.943,5.22,1.757,5.5,1.872,5.779,1.983,6.055,2.083Z" transform="translate(0 0)" fill="none" stroke="#ad8089" stroke-linecap="round" stroke-linejoin="round" stroke-width="0.651"/>
            <g id="Group_88" data-name="Group 88" transform="translate(0.321 0.014)">
              <g id="Group_87" data-name="Group 87" transform="translate(0 0)">
                <g id="Group_85" data-name="Group 85" transform="translate(0 0.243)">
                  <path id="Path_63" data-name="Path 63" d="M.03,0c.128.093.3.228.508.4A8.925,8.925,0,0,1,1.886,1.842a8.22,8.22,0,0,1,.567.876c.081.144.151.289.222.421s.132.261.186.38c.028.06.052.116.075.171.135.311.211.536.236.609.006.018.008.026.008.026l-.018.014s-.009-.019-.03-.054S3.083,4.2,3.05,4.137c-.066-.132-.175-.313-.3-.536-.063-.111-.135-.231-.209-.36s-.156-.262-.24-.4-.175-.282-.269-.428-.2-.292-.3-.435-.207-.287-.318-.424-.215-.276-.324-.4S.875.9.769.784.562.566.467.471L.205.213C.127.138.059.078,0,.027A.152.152,0,0,0,.03,0Z" transform="translate(0 0)" fill="#f0c5ce"/>
                </g>
                <g id="Group_86" data-name="Group 86" transform="translate(0.221)">
                  <path id="Path_64" data-name="Path 64" d="M.87.46c.127.077.259.163.388.258s.268.194.4.3.262.219.39.334.246.241.358.364.22.252.32.377c.049.064.1.126.143.188s.091.121.134.18c.085.118.159.234.225.343a4.923,4.923,0,0,1,.286.55c.032.067.052.125.067.163l.023.059a.133.133,0,0,0-.019.016A8.022,8.022,0,0,0,3.126,2.9c-.074-.1-.158-.208-.249-.32-.045-.055-.093-.112-.142-.169s-.1-.121-.147-.181a8.639,8.639,0,0,0-.68-.728c-.245-.236-.5-.461-.752-.664S.663.464.448.323C.273.207.119.111,0,.04L.024,0c.129.063.3.143.485.247C.624.309.746.38.87.46Z" transform="translate(0 0)" fill="#f0c5ce"/>
                </g>
              </g>
            </g>
          </g>
          <g id="Group_95" data-name="Group 95" transform="translate(13.116 8.368)">
            <path id="Path_65" data-name="Path 65" d="M9.063,3.074a3.929,3.929,0,0,1,.423,1.533.792.792,0,0,1,0,.093A1.211,1.211,0,0,1,8.825,5.81c-.755.364-2.016.073-3.344-.414-.277-.1-.556-.211-.835-.326C2.616,4.256.627,3.525,0,3.313a1.163,1.163,0,0,0,.1-.9C.1,2.391.092,2.369.084,2.345A15.905,15.905,0,0,0,3.822.377,5.391,5.391,0,0,0,4.315,0,5.615,5.615,0,0,1,9.063,3.074Z" transform="translate(0 0)" fill="none" stroke="#c9415e" stroke-linecap="round" stroke-linejoin="round" stroke-width="0.651"/>
            <g id="Group_94" data-name="Group 94" transform="translate(0.11 1.171)">
              <g id="Group_93" data-name="Group 93" transform="translate(0 0)">
                <g id="Group_90" data-name="Group 90" transform="translate(0.975 0)">
                  <path id="Path_66" data-name="Path 66" d="M3.787.022c0,.011.005.019.009.029L3.734.06c-.042,0-.1.018-.175.024C3.409.1,3.2.134,2.942.167c-.126.017-.262.039-.408.057s-.3.043-.453.075S1.766.367,1.6.4,1.277.466,1.117.5.791.572.631.608L.17.72C.112.736.055.749,0,.763.308.627.656.463,1.026.271a.03.03,0,0,1,.013,0c.326-.078.654-.145.971-.195a3.811,3.811,0,0,1,.463-.05C2.621.013,2.764.006,2.9,0,3.425-.01,3.788.024,3.787.022Z" transform="translate(0 0)" fill="#f0c5ce"/>
                </g>
                <g id="Group_91" data-name="Group 91" transform="translate(0.031 1.663)">
                  <path id="Path_67" data-name="Path 67" d="M5.108,1.274c0,.009,0,.017,0,.026l-.061-.012c-.039-.008-.1-.016-.173-.035-.15-.039-.364-.077-.621-.143-.126-.032-.267-.065-.414-.1s-.3-.082-.461-.13-.326-.089-.5-.139-.34-.1-.511-.14S2.027.506,1.856.466,1.523.377,1.363.34,1.05.267.9.235.623.175.5.151.254.1.152.083L0,.056A.262.262,0,0,0,0,0C.134.008.3.019.491.039A13.785,13.785,0,0,1,2.369.367c.344.086.689.187,1.012.291.161.051.316.11.465.156s.285.094.415.14C4.773,1.134,5.108,1.274,5.108,1.274Z" transform="translate(0 0)" fill="#f0c5ce"/>
                </g>
                <g id="Group_92" data-name="Group 92" transform="translate(0 1.107)">
                  <path id="Path_68" data-name="Path 68" d="M4.727.55a.161.161,0,0,1,0,.027S4.4.507,3.906.436C3.783.419,3.649.4,3.512.386,3.439.378,3.367.369,3.293.363S3.143.34,3.068.331C2.762.291,2.436.259,2.114.239S1.473.2,1.176.2s-.565,0-.8.01C.241.213.118.22.013.227.009.205.006.184,0,.162.1.14.225.115.363.1.476.077.6.061.732.048S1,.02,1.147.013,1.447,0,1.6,0s.316,0,.477,0,.323.022.484.039.319.041.475.065c.078.014.154.025.228.043s.147.024.22.038c.14.025.277.056.4.087.252.06.462.137.611.184.072.023.129.05.17.065Z" transform="translate(0 0)" fill="#f0c5ce"/>
                </g>
              </g>
            </g>
          </g>
          <g id="Group_108" data-name="Group 108" transform="translate(11.679 2.776)">
            <path id="Path_69" data-name="Path 69" d="M5.784.966c2.021,1.368,1.454,3.361-.033,4.626a5.388,5.388,0,0,1-.493.377A12.868,12.868,0,0,1,3.548,7.035c-.37.192-.718.356-1.026.492-.432.193-.786.329-1,.411a1.431,1.431,0,0,0-.056-.154c-.008-.019-.016-.038-.025-.056A2.222,2.222,0,0,0,.358,6.685C.33,6.671.3,6.658.272,6.647A2.263,2.263,0,0,0,0,6.556C0,6.184.1,5.6.087,5.493c.008-.143.014-.287.019-.431.016-.389.025-.783.028-1.175,0-.134,0-.269,0-.4A7.133,7.133,0,0,1,.355,1.756C.692.528,1.619-.406,3.976.179A6.449,6.449,0,0,1,5.784.966Z" transform="translate(0 0)" fill="none" stroke="#c9415e" stroke-linecap="round" stroke-linejoin="round" stroke-width="0.651"/>
            <g id="Group_107" data-name="Group 107" transform="translate(0.625 0.359)">
              <g id="Group_98" data-name="Group 98" transform="translate(0.769 0)">
                <g id="Group_96" data-name="Group 96" transform="translate(0)">
                  <path id="Path_70" data-name="Path 70" d="M1.78.022,1.761.031c-.011.005-.029.016-.053.025-.049.02-.115.049-.2.08-.042.015-.084.034-.135.049s-.094.039-.151.053-.1.039-.159.057A1.545,1.545,0,0,0,.9.356a1.208,1.208,0,0,0-.163.06C.69.437.634.454.588.477.485.516.394.555.315.589.277.608.236.62.2.634A.664.664,0,0,1,.116.671C.065.69.031.7.031.7L0,.681S.01.657.029.619C.039.6.051.576.065.55S.1.5.127.469A.429.429,0,0,1,.211.381.6.6,0,0,1,.323.3.931.931,0,0,1,.459.215,1.131,1.131,0,0,1,.621.147,1.655,1.655,0,0,1,.8.094C.863.077.933.067.993.054c.131-.021.255-.037.37-.044.226-.016.4-.009.4-.009Z" fill="#f0c5ce"/>
                </g>
                <g id="Group_97" data-name="Group 97" transform="translate(4.782 1.482)">
                  <path id="Path_71" data-name="Path 71" d="M.128.015s.012.035.03.1S.2.261.224.365s.045.221.07.348C.307.777.308.837.315.9s.016.13.017.192-.006.12-.009.179A.63.63,0,0,1,.3,1.44c-.013.05-.024.1-.036.145a.487.487,0,0,1-.041.125c-.079.136-.134.224-.134.224L.062,1.911a1.212,1.212,0,0,1-.03-.332A.332.332,0,0,0,.026,1.5c0-.029,0-.053-.006-.081a1.116,1.116,0,0,1-.006-.166,1.649,1.649,0,0,0-.007-.177c0-.061,0-.12,0-.179s0-.12,0-.179S.012.614.008.556A2.324,2.324,0,0,1,.03.264.625.625,0,0,1,.052.154.767.767,0,0,1,.071.069C.077.047.086.031.089.018L.1,0Z" transform="translate(0 0)" fill="#f0c5ce"/>
                </g>
              </g>
              <g id="Group_102" data-name="Group 102" transform="translate(0 2.136)">
                <g id="Group_99" data-name="Group 99" transform="translate(0 0)">
                  <path id="Path_72" data-name="Path 72" d="M1.086,0l.03.019s0,.02,0,.059,0,.1-.015.163c-.017.136-.033.339-.071.57-.019.116-.038.241-.066.371S.911,1.451.886,1.6s-.05.3-.084.446-.067.3-.1.453-.081.3-.121.442-.085.286-.127.424-.089.265-.132.388-.087.234-.128.338-.085.2-.121.288C.044,4.362.023,4.348,0,4.335c.027-.1.057-.206.088-.327.059-.227.122-.492.187-.78.032-.144.06-.3.1-.445s.065-.3.1-.456c.065-.3.13-.607.189-.89.027-.143.064-.273.1-.4S.826.8.858.695C.988.27,1.088,0,1.086,0Z" transform="translate(0 0)" fill="#f0c5ce"/>
                </g>
                <g id="Group_100" data-name="Group 100" transform="translate(0.633 2.243)">
                  <path id="Path_73" data-name="Path 73" d="M3.355,0c.01.009.017.017.026.025l-.03.043C3.329.1,3.3.141,3.259.191c-.086.1-.2.25-.352.411-.077.081-.16.169-.254.257a3.019,3.019,0,0,1-.3.262c-.109.087-.218.182-.337.267s-.237.177-.355.266-.243.172-.36.258-.242.16-.354.239S.716,2.3.613,2.372s-.2.137-.292.2-.173.115-.247.162L.047,2.75,0,2.682H0c.067-.064.147-.135.235-.213.319-.29.77-.655,1.232-1.021.232-.181.472-.358.7-.524.111-.083.227-.157.325-.239S2.682.529,2.771.46C3.123.184,3.357,0,3.355,0Z" transform="translate(0 0)" fill="#f0c5ce"/>
                </g>
                <g id="Group_101" data-name="Group 101" transform="translate(0.299 1.503)">
                  <path id="Path_74" data-name="Path 74" d="M2.373,0A.277.277,0,0,1,2.4.022s-.16.219-.394.553c-.059.084-.121.174-.188.272-.035.048-.07.1-.1.147s-.077.1-.115.147c-.16.2-.326.412-.49.627s-.33.426-.487.623-.3.383-.415.543c-.05.065-.1.127-.139.183C.048,3.1.025,3.076,0,3.055c.035-.067.073-.14.115-.218s.1-.187.162-.287.119-.209.19-.314S.6,2.016.679,1.909.827,1.687.9,1.575s.16-.213.243-.319.167-.2.249-.3c.043-.047.081-.1.124-.138S1.6.73,1.635.686c.076-.088.149-.167.22-.239C1.993.3,2.132.2,2.221.115A1.151,1.151,0,0,1,2.332.029Z" transform="translate(0 0)" fill="#f0c5ce"/>
                </g>
              </g>
              <g id="Group_103" data-name="Group 103" transform="translate(2.737 1.891)">
                <path id="Path_75" data-name="Path 75" d="M0,1.486A.381.381,0,0,1,.033,1.4c.012-.026.028-.057.043-.094a.768.768,0,0,1,.057-.12,1.313,1.313,0,0,1,.079-.131C.243,1.011.273.962.306.914a1.424,1.424,0,0,1,.1-.147C.45.72.49.673.531.626L.664.494A1.4,1.4,0,0,1,.789.365,1.736,1.736,0,0,1,1.042.158a2.121,2.121,0,0,1,.211-.12A.427.427,0,0,1,1.318.009L1.343,0l.021.016s-.08.095-.2.24c-.058.074-.125.16-.2.254C.936.556.9.6.863.655L.738.793C.651.884.566.977.486,1.063S.32,1.222.253,1.29A3.1,3.1,0,0,1,.019,1.5Z" transform="translate(0 0)" fill="#f0c5ce"/>
              </g>
              <g id="Group_106" data-name="Group 106" transform="translate(1.673 2.01)">
                <g id="Group_104" data-name="Group 104" transform="translate(0 0)">
                  <path id="Path_76" data-name="Path 76" d="M.763.015S.568.31.39.619s-.364.615-.363.615L.005,1.22A1.152,1.152,0,0,1,.011.947,1.227,1.227,0,0,1,.068.706.762.762,0,0,1,.115.582C.134.542.155.5.174.462S.223.389.248.353A1.006,1.006,0,0,1,.33.255.925.925,0,0,1,.509.1.767.767,0,0,1,.74,0Z" transform="translate(0 0)" fill="#f0c5ce"/>
                </g>
                <g id="Group_105" data-name="Group 105" transform="translate(1.433 1.149)">
                  <path id="Path_77" data-name="Path 77" d="M.864.018A1.047,1.047,0,0,1,.829.285,1.2,1.2,0,0,1,.744.52,1.089,1.089,0,0,1,.68.639L.606.755C.577.79.549.826.52.861A.853.853,0,0,1,.429.956,1.126,1.126,0,0,1,.243,1.1a.866.866,0,0,1-.225.1L0,1.192.413.585C.627.29.845,0,.842,0S.857.012.864.018Z" transform="translate(0 0)" fill="#f0c5ce"/>
                </g>
              </g>
            </g>
          </g>
          <g id="Group_109" data-name="Group 109" transform="translate(10.292 9.426)">
            <path id="Path_78" data-name="Path 78" d="M.165.087A.059.059,0,0,1,.1.167.116.116,0,0,1,0,.08.06.06,0,0,1,.063,0,.116.116,0,0,1,.165.087Z" transform="translate(2.631 1.421)" fill="#f0c5ce"/>
            <path id="Path_79" data-name="Path 79" d="M.116.06A.043.043,0,0,1,.072.115.082.082,0,0,1,0,.055.042.042,0,0,1,.046,0,.083.083,0,0,1,.116.06Z" transform="translate(2.343 1.562)" fill="#f0c5ce"/>
            <path id="Path_80" data-name="Path 80" d="M.112.059a.042.042,0,0,1-.048.05A.071.071,0,0,1,0,.05.042.042,0,0,1,.049,0,.072.072,0,0,1,.112.059Z" transform="translate(1.615 2.542)" fill="#f0c5ce"/>
            <path id="Path_81" data-name="Path 81" d="M.116.059A.041.041,0,0,1,.075.114.084.084,0,0,1,0,.055.041.041,0,0,1,.043,0,.083.083,0,0,1,.116.059Z" transform="translate(2.307 1.205)" fill="#f0c5ce"/>
            <path id="Path_82" data-name="Path 82" d="M.115.056A.039.039,0,0,1,.074.11.08.08,0,0,1,0,.054.039.039,0,0,1,.042,0,.083.083,0,0,1,.115.056Z" transform="translate(1.264 1.226)" fill="#f0c5ce"/>
            <path id="Path_83" data-name="Path 83" d="M.116.058A.04.04,0,0,1,.074.112.083.083,0,0,1,0,.054.041.041,0,0,1,.045,0,.081.081,0,0,1,.116.058Z" transform="translate(1.914 1.426)" fill="#f0c5ce"/>
            <path id="Path_84" data-name="Path 84" d="M.113.058A.042.042,0,0,1,.067.11.075.075,0,0,1,0,.052.042.042,0,0,1,.047,0,.076.076,0,0,1,.113.058Z" transform="translate(1.529 2.235)" fill="#f0c5ce"/>
            <path id="Path_85" data-name="Path 85" d="M.113.057A.042.042,0,0,1,.068.108.077.077,0,0,1,0,.051.042.042,0,0,1,.048,0,.073.073,0,0,1,.113.057Z" transform="translate(1.206 1.995)" fill="#f0c5ce"/>
            <path id="Path_86" data-name="Path 86" d="M.113.056a.042.042,0,0,1-.046.05A.073.073,0,0,1,0,.05.041.041,0,0,1,.047,0,.074.074,0,0,1,.113.056Z" transform="translate(0.892 2.251)" fill="#f0c5ce"/>
            <path id="Path_87" data-name="Path 87" d="M.114.061A.041.041,0,0,1,.069.115.078.078,0,0,1,0,.055.043.043,0,0,1,.047,0,.079.079,0,0,1,.114.061Z" transform="translate(2.713 1.809)" fill="#f0c5ce"/>
            <path id="Path_88" data-name="Path 88" d="M.113.061A.043.043,0,0,1,.064.112.072.072,0,0,1,0,.052.044.044,0,0,1,.047,0,.076.076,0,0,1,.113.061Z" transform="translate(2.386 2.344)" fill="#f0c5ce"/>
            <path id="Path_89" data-name="Path 89" d="M.117.06a.04.04,0,0,1-.04.057A.087.087,0,0,1,0,.058.041.041,0,0,1,.043,0,.087.087,0,0,1,.117.06Z" transform="translate(2.518 0.942)" fill="#f0c5ce"/>
            <path id="Path_90" data-name="Path 90" d="M.116.056A.04.04,0,0,1,.078.113.086.086,0,0,1,0,.056.04.04,0,0,1,.042,0,.086.086,0,0,1,.116.056Z" transform="translate(1.618 1.094)" fill="#f0c5ce"/>
            <path id="Path_91" data-name="Path 91" d="M0,.07A.1.1,0,0,0,.087.149.054.054,0,0,0,.145.078.1.1,0,0,0,.059,0,.056.056,0,0,0,0,.07Z" transform="translate(1.965 2.034)" fill="#f0c5ce"/>
            <path id="Path_92" data-name="Path 92" d="M0,.071A.1.1,0,0,0,.09.148.053.053,0,0,0,.146.077.1.1,0,0,0,.057,0,.053.053,0,0,0,0,.071Z" transform="translate(1.644 1.629)" fill="#f0c5ce"/>
            <path id="Path_93" data-name="Path 93" d="M.151.076A.054.054,0,0,1,.092.145.1.1,0,0,1,0,.069.054.054,0,0,1,.06,0,.1.1,0,0,1,.151.076Z" transform="translate(1.484 1.886)" fill="#f0c5ce"/>
            <path id="Path_94" data-name="Path 94" d="M.151.08A.056.056,0,0,1,.089.15.1.1,0,0,1,0,.071.056.056,0,0,1,.062,0,.1.1,0,0,1,.151.08Z" transform="translate(2.368 2.022)" fill="#f0c5ce"/>
            <path id="Path_95" data-name="Path 95" d="M.149.079A.057.057,0,0,1,.086.147.1.1,0,0,1,0,.067.057.057,0,0,1,.065,0,.094.094,0,0,1,.149.079Z" transform="translate(1.925 2.458)" fill="#f0c5ce"/>
            <path id="Path_96" data-name="Path 96" d="M.153.079A.056.056,0,0,1,.093.15.105.105,0,0,1,0,.071.055.055,0,0,1,.061,0,.1.1,0,0,1,.153.079Z" transform="translate(2.138 1.732)" fill="#f0c5ce"/>
            <path id="Path_97" data-name="Path 97" d="M.155.077A.053.053,0,0,1,.1.151.113.113,0,0,1,0,.074.054.054,0,0,1,.057,0,.113.113,0,0,1,.155.077Z" transform="translate(1.904 0.928)" fill="#f0c5ce"/>
            <path id="Path_98" data-name="Path 98" d="M.157.077A.053.053,0,0,1,.106.153.117.117,0,0,1,0,.076.053.053,0,0,1,.054,0,.118.118,0,0,1,.157.077Z" transform="translate(2.181 0.621)" fill="#f0c5ce"/>
            <path id="Path_99" data-name="Path 99" d="M.153.075A.054.054,0,0,1,.093.143.1.1,0,0,1,0,.068.054.054,0,0,1,.062,0,.1.1,0,0,1,.153.075Z" transform="translate(1.079 1.609)" fill="#f0c5ce"/>
            <path id="Path_100" data-name="Path 100" d="M.149.076A.055.055,0,0,1,.087.142.1.1,0,0,1,0,.066.056.056,0,0,1,.064,0,.094.094,0,0,1,.149.076Z" transform="translate(1.155 2.381)" fill="#f0c5ce"/>
            <path id="Path_101" data-name="Path 101" d="M0,.082A.058.058,0,0,1,.06,0,.119.119,0,0,1,.165.083.058.058,0,0,1,.109.164.121.121,0,0,1,0,.082Z" transform="translate(0.054 1.092)" fill="#f0c5ce"/>
            <path id="Path_102" data-name="Path 102" d="M0,.056A.04.04,0,0,1,.043,0,.086.086,0,0,1,.116.058.041.041,0,0,1,.074.113.082.082,0,0,1,0,.056Z" transform="translate(0.385 0.993)" fill="#f0c5ce"/>
            <path id="Path_103" data-name="Path 103" d="M0,.052A.041.041,0,0,1,.047,0a.079.079,0,0,1,.07.058A.04.04,0,0,1,.071.11.08.08,0,0,1,0,.052Z" transform="translate(1.068 0)" fill="#f0c5ce"/>
            <path id="Path_104" data-name="Path 104" d="M0,.056A.04.04,0,0,1,.041,0,.084.084,0,0,1,.115.057a.04.04,0,0,1-.04.056A.081.081,0,0,1,0,.056Z" transform="translate(0.434 1.349)" fill="#f0c5ce"/>
            <path id="Path_105" data-name="Path 105" d="M0,.053A.039.039,0,0,1,.043,0,.08.08,0,0,1,.116.056.039.039,0,0,1,.075.11.083.083,0,0,1,0,.053Z" transform="translate(1.21 1.002)" fill="#f0c5ce"/>
            <path id="Path_106" data-name="Path 106" d="M0,.055A.04.04,0,0,1,.043,0,.084.084,0,0,1,.116.057.041.041,0,0,1,.075.112.083.083,0,0,1,0,.055Z" transform="translate(0.818 1.122)" fill="#f0c5ce"/>
            <path id="Path_107" data-name="Path 107" d="M0,.053A.04.04,0,0,1,.046,0,.081.081,0,0,1,.117.058.041.041,0,0,1,.072.11.08.08,0,0,1,0,.053Z" transform="translate(0.977 0.398)" fill="#f0c5ce"/>
            <path id="Path_108" data-name="Path 108" d="M0,.052A.041.041,0,0,1,.047,0,.082.082,0,0,1,.118.058.041.041,0,0,1,.073.109.081.081,0,0,1,0,.052Z" transform="translate(1.335 0.298)" fill="#f0c5ce"/>
            <path id="Path_109" data-name="Path 109" d="M0,.05A.041.041,0,0,1,.047,0a.078.078,0,0,1,.07.057C.124.087.1.109.07.107A.08.08,0,0,1,0,.05Z" transform="translate(1.836 0.297)" fill="#f0c5ce"/>
            <path id="Path_110" data-name="Path 110" d="M0,.057A.041.041,0,0,1,.043,0,.083.083,0,0,1,.116.059.04.04,0,0,1,.075.115.083.083,0,0,1,0,.057Z" transform="translate(0 0.756)" fill="#f0c5ce"/>
            <path id="Path_111" data-name="Path 111" d="M0,.054A.041.041,0,0,1,.045,0,.083.083,0,0,1,.118.059.042.042,0,0,1,.074.113.084.084,0,0,1,0,.054Z" transform="translate(0.288 0.212)" fill="#f0c5ce"/>
            <path id="Path_112" data-name="Path 112" d="M0,.058A.04.04,0,0,1,.04,0,.084.084,0,0,1,.115.057.041.041,0,0,1,.076.114.082.082,0,0,1,0,.058Z" transform="translate(0.233 1.614)" fill="#f0c5ce"/>
            <path id="Path_113" data-name="Path 113" d="M0,.056A.041.041,0,0,1,.041,0,.083.083,0,0,1,.115.056.04.04,0,0,1,.077.112.086.086,0,0,1,0,.056Z" transform="translate(0.854 1.789)" fill="#f0c5ce"/>
            <path id="Path_114" data-name="Path 114" d="M.15.078A.107.107,0,0,0,.057,0,.052.052,0,0,0,0,.072.11.11,0,0,0,.095.149.053.053,0,0,0,.15.078Z" transform="translate(0.707 0.477)" fill="#f0c5ce"/>
            <path id="Path_115" data-name="Path 115" d="M.149.076A.107.107,0,0,0,.058,0,.053.053,0,0,0,0,.072.108.108,0,0,0,.1.148.052.052,0,0,0,.149.076Z" transform="translate(1.018 0.648)" fill="#f0c5ce"/>
            <path id="Path_116" data-name="Path 116" d="M0,.069A.053.053,0,0,1,.061,0,.107.107,0,0,1,.155.076.053.053,0,0,1,.1.145.106.106,0,0,1,0,.069Z" transform="translate(1.53 0.748)" fill="#f0c5ce"/>
            <path id="Path_117" data-name="Path 117" d="M0,.073A.053.053,0,0,1,.059,0a.109.109,0,0,1,.1.077A.054.054,0,0,1,.1.15.107.107,0,0,1,0,.073Z" transform="translate(0.293 0.498)" fill="#f0c5ce"/>
            <path id="Path_118" data-name="Path 118" d="M0,.069A.055.055,0,0,1,.063,0,.108.108,0,0,1,.157.078.054.054,0,0,1,.1.147.107.107,0,0,1,0,.069Z" transform="translate(0.712 0.052)" fill="#f0c5ce"/>
            <path id="Path_119" data-name="Path 119" d="M0,.073A.055.055,0,0,1,.058,0a.108.108,0,0,1,.1.077A.054.054,0,0,1,.1.15.111.111,0,0,1,0,.073Z" transform="translate(0.542 0.782)" fill="#f0c5ce"/>
            <path id="Path_120" data-name="Path 120" d="M0,.074A.052.052,0,0,1,.055,0a.109.109,0,0,1,.1.074A.053.053,0,0,1,.1.149.107.107,0,0,1,0,.074Z" transform="translate(0.76 1.464)" fill="#f0c5ce"/>
            <path id="Path_121" data-name="Path 121" d="M0,.076A.053.053,0,0,1,.052,0a.111.111,0,0,1,.1.074C.165.116.144.15.1.151A.11.11,0,0,1,0,.076Z" transform="translate(0.525 1.89)" fill="#f0c5ce"/>
            <path id="Path_122" data-name="Path 122" d="M0,.069A.054.054,0,0,1,.061,0a.109.109,0,0,1,.1.075A.054.054,0,0,1,.1.144.111.111,0,0,1,0,.069Z" transform="translate(1.681 0.48)" fill="#f0c5ce"/>
            <path id="Path_123" data-name="Path 123" d="M0,.067A.054.054,0,0,1,.064,0,.107.107,0,0,1,.157.077.055.055,0,0,1,.095.144.107.107,0,0,1,0,.067Z" transform="translate(1.517 0.126)" fill="#f0c5ce"/>
          </g>
        </g>
      </g>
    </g>
  </g>
</svg>
