<svg id="Group_2181" data-name="Group 2181" xmlns="http://www.w3.org/2000/svg" width="24" height="24" viewBox="0 0 24 24">
  <path id="Path_892" data-name="Path 892" d="M0,0H24V24H0Z" fill="none"/>
  <line id="Line_60" data-name="Line 60" x2="18" transform="translate(3 21)" fill="none" stroke="#121212" stroke-linecap="round" stroke-linejoin="round" stroke-width="1.5"/>
  <path id="Path_893" data-name="Path 893" d="M3,7V8A3,3,0,0,0,9,8V7M9,8a3,3,0,0,0,6,0V7m0,1a3,3,0,0,0,6,0V7H3L5,3H19l2,4" fill="none" stroke="#121212" stroke-linecap="round" stroke-linejoin="round" stroke-width="1.5"/>
  <line id="Line_61" data-name="Line 61" y1="10.15" transform="translate(5 10.85)" fill="none" stroke="#121212" stroke-linecap="round" stroke-linejoin="round" stroke-width="1.5"/>
  <line id="Line_62" data-name="Line 62" y1="10.15" transform="translate(19 10.85)" fill="none" stroke="#121212" stroke-linecap="round" stroke-linejoin="round" stroke-width="1.5"/>
  <path id="Path_894" data-name="Path 894" d="M9,21V17a2,2,0,0,1,2-2h2a2,2,0,0,1,2,2v4" fill="none" stroke="#121212" stroke-linecap="round" stroke-linejoin="round" stroke-width="1.5"/>
</svg>
